<svg width="249" height="90" viewBox="0 0 249 90" fill="none" xmlns="http://www.w3.org/2000/svg">
<path d="M46.8146 13.2738C46.6328 12.6196 46.2486 11.8189 45.7657 11.0862C45.5528 10.7669 45.3555 10.5 45.3295 10.5C45.2568 10.5 44.5662 11.5677 44.3222 12.0648C43.8652 12.9807 43.6679 13.7815 43.6679 14.7078C43.6679 15.8801 44.0106 16.9478 44.6545 17.7695L44.8622 18.0311V23.6468C44.857 28.0744 44.8466 29.2415 44.7947 29.1735C44.7583 29.1264 44.5402 28.8123 44.3066 28.4669C43.4083 27.1585 42.1413 25.6879 41.0509 24.6883C40.4953 24.1754 39.6749 23.495 39.4879 23.3903C39.4464 23.3642 39.3997 23.1287 39.3633 22.7309C39.2127 21.1661 38.7766 20.2031 37.8108 19.282C37.3694 18.8633 37.0942 18.6644 35.6714 17.7381C35.2256 17.4487 34.8046 17.1731 34.5803 17.0263C34.4963 16.9714 34.4399 16.9345 34.4201 16.9216L34.2851 16.8327L34.3526 17.1571C34.3889 17.3403 34.4564 17.9317 34.5031 18.4812C34.607 19.7582 34.6641 20.1037 34.8458 20.6793C35.2768 22.0505 36.2634 22.8879 37.9094 23.3014C38.2417 23.3799 38.2677 23.4008 38.5325 23.7305C39.3062 24.704 40.1059 25.4838 40.9418 26.07C41.4403 26.4206 42.3282 27.3312 42.7229 27.9017C43.1019 28.4355 43.5485 29.3252 43.7458 29.9376C44.1923 31.2826 44.3377 32.9207 44.2651 35.6369L44.2287 37.0919L44.0522 36.804C43.5017 35.8777 42.7384 34.9042 42.3179 34.5902C42.1153 34.4385 42.0115 34.3024 41.8609 33.9988C41.5234 33.3028 40.838 32.7061 39.9812 32.3607C39.0414 31.9839 37.6238 31.874 36.2686 32.0676C35.713 32.1514 34.7679 32.3345 34.7264 32.3712C34.6745 32.4131 35.3859 33.2452 35.9674 33.8314C36.6996 34.5641 37.2707 34.9304 38.0185 35.1555C38.3664 35.2654 38.5325 35.2758 40.1941 35.2915L41.9907 35.3177L42.2504 35.6631C42.7229 36.2964 42.9929 36.7517 43.1487 37.1599C43.3304 37.6571 43.5485 38.0235 43.9431 38.5102L44.2391 38.8818L44.2339 52.0809L44.0054 51.4267C43.7042 50.5789 43.0811 49.3333 42.645 48.7052C42.188 48.0615 41.1443 47.0043 40.4226 46.4653C40.111 46.2297 39.2231 45.6436 38.4494 45.1621C36.2998 43.8118 35.6247 43.3094 34.5602 42.2679C32.9038 40.6507 31.7563 38.8137 30.6399 36.0138L30.3491 35.2811L30.318 33.8942C30.2868 32.4602 30.2453 32.1252 30.0116 31.4291C29.752 30.6546 29.2639 29.9376 28.5058 29.2206C28.0332 28.7757 26.9532 27.9069 26.9117 27.9436C26.8649 27.9959 26.7403 29.4979 26.7403 30.0893C26.7403 32.5858 27.4517 34.1506 29.0198 35.0717L29.3522 35.2654L30.4062 37.4425C30.993 38.6358 31.4603 39.6197 31.4499 39.6302C31.4447 39.6406 30.9099 39.3266 30.2712 38.9341C27.9242 37.5001 25.5097 36.1655 24.8866 35.9457C24.7932 35.9143 24.7153 35.862 24.7153 35.8306C24.7153 35.7992 24.6218 35.527 24.5127 35.2235C24.0766 34.0564 23.4379 33.2557 22.6382 32.8527C21.8334 32.4549 20.9351 32.2979 19.1749 32.2351C18.479 32.2142 18.2246 32.2194 18.2246 32.2613C18.2246 32.3921 18.6608 33.24 18.962 33.6953C19.3306 34.2501 20.0732 35.0299 20.5612 35.37C21.5323 36.0556 22.7473 36.4377 23.8325 36.3958L24.2739 36.3801L24.8035 36.7883C25.8368 37.5786 26.9376 38.259 27.8308 38.6567C29.0198 39.1906 30.4737 40.232 31.9847 41.6347L32.3223 41.9487L28.6875 41.9225C26.6884 41.9068 24.9749 41.8859 24.8814 41.8754C24.7516 41.8597 24.6062 41.755 24.3051 41.4672C22.8719 40.0907 21.3765 39.7349 19.2839 40.2844C18.2973 40.5408 16.7188 41.1113 16.7188 41.216C16.7188 41.3573 17.3107 41.7812 17.939 42.0847C19.3773 42.7965 21.013 43.21 22.3527 43.21C23.0433 43.21 23.386 43.1367 23.765 42.9221L24.0143 42.7756L25.6239 42.7494C28.3708 42.7075 30.4426 42.9378 32.26 43.4978C33.6204 43.9113 34.8354 44.5655 35.4585 45.2144L35.6299 45.3976L35.173 45.429C32.2911 45.6384 31.2994 46.2873 30.157 48.6948C29.9597 49.1187 29.5858 49.8985 29.3314 50.4271C29.077 50.9557 28.8692 51.3953 28.8692 51.4058C28.8692 51.4686 30.3491 51.1389 30.8164 50.9714C31.7044 50.6521 32.4573 50.1288 32.9038 49.5269C33.2309 49.0821 33.4906 48.4959 33.7502 47.6323C34.0618 46.5804 34.15 46.46 34.7264 46.3501C35.1937 46.2559 36.3205 46.3082 36.8294 46.4496C38.6727 46.9572 40.4433 48.4593 41.404 50.3277C41.9388 51.3744 42.1621 52.2274 42.1621 53.2271C42.1621 54.2214 41.9492 54.928 41.4144 55.7287C41.0561 56.273 40.7809 56.4981 40.298 56.6498C40.028 56.7336 39.4516 56.7388 31.2578 56.7231C21.4751 56.7074 19.7045 56.7388 15.9659 57.0057C14.8339 57.0842 12.3883 57.304 11.734 57.3825L11.3965 57.4244L11.8378 57.461C12.0819 57.4767 18.0169 57.5762 25.0268 57.6808C32.0367 57.7855 37.9354 57.885 38.1275 57.9059L38.4858 57.9425L37.9562 58.2722C36.954 58.9055 35.957 59.3556 35.282 59.4917C35.0743 59.5335 27.7477 59.6906 25.8265 59.6958C25.4897 59.6958 25.3904 59.6958 25.3483 59.7453C25.3307 59.766 25.3231 59.7954 25.3124 59.8371C25.058 60.8786 21.1012 63.4849 14.3043 67.1013C13.6189 67.4624 13.1152 67.745 13.1879 67.7241C13.2606 67.7032 13.8421 67.4677 14.486 67.1955C19.1956 65.2015 23.2821 62.9616 25.6914 61.0565L26.2263 60.6378H30.858C34.0202 60.6378 35.5884 60.6221 35.7961 60.5855C36.4192 60.4651 37.4057 60.0464 37.9198 59.6853C38.2261 59.4655 38.0912 59.6487 37.5823 60.1459C37.2863 60.4337 36.8969 60.7634 36.7151 60.889C36.6005 60.9657 36.5143 61.0272 36.4217 61.0768C36.0279 61.2876 35.5198 61.2813 32.2236 61.3025L28.5993 61.3287L27.3167 62.1817C25.6551 63.286 24.6062 63.9193 23.765 64.3223C22.7577 64.8038 21.849 65.5208 19.8447 67.3996L18.8945 68.2946L18.4687 68.2998C18.1104 68.305 17.991 68.3312 17.7469 68.4516C17.1861 68.729 16.8226 69.3204 16.8226 69.9536C16.8226 70.8747 17.534 71.5865 18.4531 71.597C18.775 71.597 18.8789 71.576 19.1749 71.4295C19.8083 71.1155 20.1251 70.5659 20.0835 69.8489C20.0576 69.4041 19.9434 69.1319 19.6422 68.797C19.4812 68.6191 19.4656 68.5772 19.5279 68.5196C19.7616 68.2998 22.7525 65.9394 22.9965 65.7824C23.1575 65.6778 24.1545 65.0864 25.2085 64.4688C27.4985 63.129 28.3189 62.6214 28.7447 62.2707L29.0614 62.009L29.752 61.9515C30.4893 61.8887 32.2963 61.873 32.4936 61.9253C32.5923 61.9567 32.4677 62.0404 31.7927 62.4015C27.9865 64.4479 24.7101 66.6617 22.2955 68.8179C21.5998 69.4407 21.1376 69.9013 21.2155 69.9013C21.2934 69.9013 22.4358 69.3099 22.9342 69.0064C23.7235 68.5301 24.7983 67.8078 26.6157 66.5413C30.0324 64.16 31.9276 62.9563 33.2985 62.3073C33.636 62.1503 33.6412 62.1503 33.9112 62.2288C35.0483 62.569 36.8294 61.9201 38.7869 60.4389C39.8462 59.6382 41.0353 58.3193 41.2793 57.6861C41.3676 57.4453 41.3936 57.5657 41.3313 57.9216C41.0768 59.3347 39.3945 61.135 37.3746 62.1608C36.3724 62.6685 35.6974 62.8621 34.5966 62.9616C33.9008 63.0243 33.8333 63.0453 33.4023 63.2494C31.4447 64.1967 27.3115 67.9963 22.4617 73.3031C21.9476 73.8631 21.4232 74.4388 21.2934 74.5801C21.1636 74.7214 21.0909 74.8156 21.1324 74.7895C21.174 74.7685 21.8334 74.1981 22.6019 73.5229C28.5369 68.3103 33.2621 64.3746 34.1189 63.935C34.2227 63.8827 34.6174 63.7623 35.0016 63.6733C37.8263 63.0243 39.9189 61.9672 40.9834 60.6483C41.6324 59.8476 41.944 59.0678 42.0375 58.0053L42.0738 57.6023H42.645L42.6086 58.4973C42.5463 59.9627 42.3334 60.5698 41.6169 61.2973C40.8016 62.1294 39.867 62.6318 37.8367 63.3384C36.6996 63.7309 35.957 64.0711 35.0951 64.5944C33.3763 65.6359 31.7978 66.9443 29.778 68.9802C28.5421 70.2258 27.5867 71.3144 26.813 72.3349L26.3717 72.9263L25.9459 72.9472C25.193 72.9891 24.627 73.3659 24.3985 73.9835C24.2479 74.3917 24.2739 75.1035 24.4556 75.4646C24.871 76.2863 25.9718 76.6003 26.8909 76.1659C27.1921 76.0246 27.4673 75.742 27.6283 75.4175C27.7373 75.1977 27.7529 75.0878 27.7529 74.6377C27.7529 74.1719 27.7373 74.0829 27.6127 73.8474C27.4829 73.6014 27.1869 73.277 26.9688 73.1566C26.9572 73.1498 26.9462 73.1447 26.9407 73.1361C26.8997 73.0707 27.177 72.802 29.9597 70.0897C32.9194 67.1955 35.1106 65.3952 36.4711 64.7253C36.7047 64.6101 37.3019 64.3851 37.8004 64.2176C38.3456 64.0344 38.9791 63.778 39.3945 63.5686L40.0747 63.2232L39.758 63.5843C38.5793 64.898 37.8108 66.086 37.4836 67.0804C37.385 67.3839 37.359 67.5671 37.3642 67.9387C37.3694 68.1951 37.3798 68.4463 37.3902 68.4882C37.4057 68.5406 36.7878 69.2314 35.7805 70.2938C34.8874 71.2463 34.1137 72.0785 34.0722 72.1465C34.0047 72.2512 33.9891 72.5181 33.9891 73.8998C33.9839 75.0145 34.0047 75.6844 34.0566 76.0246C34.1241 76.5165 34.2902 77.1603 34.3733 77.244C34.3941 77.2702 34.4252 76.459 34.4408 75.4384C34.4674 73.7667 34.4755 73.0519 34.7512 72.4647C34.9605 72.0188 35.3242 71.6465 35.9674 70.9846C36.8917 70.0321 37.4888 69.3675 37.925 68.7865C38.06 68.6086 38.0808 68.5301 38.1171 68.0277C38.2002 66.9757 38.3819 66.421 38.87 65.7667C39.0102 65.5783 39.8722 64.6729 40.7913 63.7518C42.4425 62.0928 42.7125 61.7787 43.0448 61.1141C43.3667 60.4651 43.5641 59.3399 43.5641 58.1414V57.6023H44.4052L44.3793 58.9264C44.3585 60.3657 44.3326 60.4965 44.0262 61.0513C43.9327 61.2135 43.751 61.4857 43.6212 61.6584C43.2473 62.1503 42.0426 63.4273 41.5753 63.8303C40.973 64.3432 40.8743 64.4531 40.7341 64.72C40.4537 65.2748 40.3499 65.7301 40.0643 67.7555C39.7527 69.9432 39.4931 70.6916 38.8077 71.419C38.5169 71.733 37.8938 72.6385 37.4577 73.3816C37.2396 73.7637 37.0786 73.9835 37.0267 73.9835C36.8553 73.9835 36.5022 74.2661 36.3984 74.4859C36.1907 74.9151 36.3361 75.5012 36.71 75.7525C36.8086 75.8205 36.9073 75.9252 36.928 75.988C36.9592 76.0874 37.0786 77.4324 37.2188 79.2171L37.2603 79.7143L37.2967 78.7984C37.3382 77.7988 37.4006 77.019 37.494 76.3543L37.5563 75.9199L37.7848 75.81C38.3248 75.5483 38.4806 74.779 38.086 74.308C38.0133 74.219 37.9562 74.1405 37.9562 74.1196C37.9562 74.1039 38.304 73.5229 38.7246 72.8216C39.6904 71.2306 40.2928 70.1787 40.594 69.5454L40.8328 69.0482L40.8691 67.9701C40.9574 65.5522 41.1547 64.9869 42.105 64.338C42.9358 63.778 43.4913 63.2442 44.2962 62.2341C44.4779 62.0038 44.67 61.7578 44.7168 61.6845C44.7999 61.5589 44.8051 61.5851 44.8051 62.3388L44.8103 63.1238L44.317 63.5268C43.6731 64.0606 43.1539 64.6782 42.8631 65.2696C42.5723 65.8505 42.484 66.1959 42.4217 66.9705C42.2348 69.1895 42.1725 69.3989 41.3728 70.5921C40.4693 71.9476 40.2097 72.9106 40.3395 74.4911C40.3468 74.5845 40.3541 74.6767 40.361 74.7638C40.3836 75.0479 40.4018 75.278 40.4018 75.3181C40.407 75.3756 40.4382 75.1401 40.4745 74.7947C40.6147 73.4444 40.838 72.9054 41.8557 71.419C42.5671 70.388 42.8994 69.7234 43.1539 68.8389C43.2421 68.5353 43.2733 68.237 43.3044 67.3368C43.3615 65.8505 43.481 65.437 44.0314 64.8142C44.3118 64.495 45.1686 63.8827 45.3295 63.8827C45.4905 63.8827 46.3473 64.495 46.6276 64.8142C47.178 65.437 47.2975 65.8505 47.3546 67.3368C47.3857 68.237 47.4169 68.5353 47.5052 68.8389C47.7752 69.7652 48.0452 70.2938 48.9798 71.6912C49.8314 72.9629 50.0755 73.6119 50.1897 74.8994L50.2312 75.3181L50.2728 75.004C50.3351 74.5069 50.3351 73.2037 50.2676 72.8321C50.1222 72.0366 49.8833 71.4871 49.2758 70.5817C48.7877 69.8489 48.7046 69.6815 48.5333 69.1319C48.4035 68.7237 48.3619 68.3993 48.2373 66.9705C48.175 66.1959 48.0867 65.8505 47.7959 65.2696C47.5052 64.6782 46.9859 64.0606 46.342 63.5268L45.854 63.1238V62.3388C45.854 61.5851 45.8591 61.5589 45.9422 61.6845C45.989 61.7578 46.1811 62.0038 46.3628 62.2341C47.1677 63.2442 47.7233 63.778 48.554 64.338C49.5043 64.9869 49.7016 65.5522 49.7899 67.9701L49.8262 69.0534L50.0962 69.6134C50.4078 70.2624 51.223 71.686 52.1005 73.1095C52.4329 73.6538 52.7028 74.1091 52.7028 74.1248C52.7028 74.1405 52.6353 74.2295 52.5523 74.3289C52.1732 74.7633 52.3238 75.5274 52.8431 75.7839C52.9625 75.8467 53.0715 75.9199 53.0871 75.9513C53.1494 76.1031 53.2844 77.4691 53.3415 78.5367L53.409 79.7143L53.4454 79.1386C53.461 78.8193 53.5285 77.9663 53.596 77.2388L53.7102 75.9095L53.9075 75.7839C54.5721 75.3599 54.4631 74.2452 53.7362 74.0306C53.5596 73.973 53.5025 73.9155 53.2896 73.5439C52.9054 72.8687 52.1525 71.7697 51.8253 71.4033C51.4463 70.9794 51.2438 70.6235 51.0464 70.0321C50.8543 69.4407 50.7245 68.7813 50.5168 67.2845C50.3351 65.9604 50.1793 65.2696 49.956 64.8038C49.7951 64.4584 49.7224 64.3746 49.0837 63.8303C48.6164 63.4273 47.4117 62.1503 47.0379 61.6584C46.908 61.4857 46.7263 61.2135 46.6328 61.0513C46.3264 60.4965 46.3005 60.3657 46.2797 58.9212L46.2538 57.6023H47.0949V58.1362C47.0949 59.3504 47.2871 60.4599 47.6142 61.1141C47.9465 61.7735 48.2217 62.098 49.8002 63.6838C50.6778 64.5683 51.5345 65.4684 51.7059 65.6882C52.2615 66.3791 52.4588 66.9443 52.5263 68.0172C52.5575 68.4987 52.5783 68.5877 52.6977 68.7499C53.0819 69.268 53.7154 69.9798 54.6552 70.948C55.7613 72.0889 55.8911 72.2721 56.0468 72.9106C56.1663 73.3921 56.2338 74.4336 56.239 75.9409L56.2441 77.3068L56.3428 77.0818C56.5921 76.5375 56.7271 75.0407 56.6751 73.4497C56.6544 72.8844 56.6232 72.3506 56.6024 72.2616C56.5817 72.1517 56.0988 71.6022 54.9097 70.3409C53.866 69.2314 53.2533 68.5458 53.2689 68.4935C53.3363 68.2056 53.2896 67.4938 53.1754 67.1327C52.8846 66.1802 52.0227 64.8142 51.0413 63.7518C50.5168 63.1761 50.5116 63.1657 50.8647 63.375C51.3372 63.6576 51.9292 63.9036 52.9261 64.2438C53.4246 64.4113 54.0062 64.6363 54.2139 64.7462C55.4237 65.3585 57.2567 66.8187 59.531 68.9749C60.5747 69.9641 63.7317 73.0519 63.7525 73.099C63.7629 73.1199 63.7266 73.1513 63.6746 73.1671C63.5085 73.2194 63.1294 73.6329 63.0204 73.8788C62.8542 74.2504 62.8386 74.9203 62.9892 75.3181C63.2333 75.9723 63.8304 76.3491 64.6196 76.3491C65.6789 76.3491 66.3591 75.6844 66.3591 74.6429C66.3591 74.151 66.2501 73.8369 65.9645 73.5177C65.6322 73.1461 65.2636 72.9734 64.7131 72.9472L64.277 72.9211L63.9031 72.4186C62.2778 70.2362 59.5829 67.5252 57.3761 65.8505C55.6678 64.5526 54.5618 63.9402 52.8794 63.3593C50.8491 62.6632 49.847 62.1189 49.0421 61.2973C48.3204 60.5593 48.1023 59.947 48.0504 58.4868L48.014 57.6023H48.58L48.6423 58.1519C48.8241 59.7952 49.7068 61.0617 51.3788 62.0771C52.438 62.7208 54.0269 63.3122 55.7353 63.6995C56.078 63.7728 56.4415 63.8827 56.5505 63.935C57.3657 64.3589 62.2415 68.4202 68.1454 73.6067C68.9087 74.2818 69.5318 74.8052 69.5214 74.779C69.4539 74.5958 65.466 70.3671 63.8356 68.7499C60.7305 65.6725 58.6171 63.9088 57.2411 63.2442C56.8309 63.0453 56.753 63.0243 56.0624 62.9616C55.2264 62.8883 54.6604 62.7574 53.975 62.4853C52.8171 62.0247 51.7319 61.292 50.7816 60.3238C49.9612 59.4917 49.4472 58.6334 49.3329 57.9164C49.2758 57.55 49.2914 57.4506 49.3797 57.6808C49.5926 58.2461 50.522 59.3347 51.4307 60.0883C53.4402 61.7526 55.5224 62.5952 56.7374 62.2341C56.9867 62.1608 57.0178 62.1608 57.2515 62.2655C57.615 62.4173 58.7418 63.0453 59.5829 63.5582C60.663 64.2176 61.7482 64.9451 63.7889 66.3686C65.7568 67.7398 66.9719 68.5563 67.7611 69.0325C68.3219 69.3727 69.4175 69.9222 69.4539 69.8856C69.4902 69.8489 68.4154 68.8441 67.6313 68.1899C65.3362 66.2587 62.039 64.0868 58.7937 62.3649C58.2537 62.0771 58.0771 61.9619 58.1446 61.9358C58.29 61.8782 60.1541 61.8887 60.907 61.9515C61.5872 62.009 61.6132 62.0195 61.7949 62.1817C62.1844 62.5324 62.9996 63.0453 65.4141 64.4531C67.7767 65.8348 67.8338 65.8714 69.5422 67.2426C70.1111 67.702 70.6211 68.1113 70.9112 68.344C71.0606 68.4639 71.1516 68.5369 71.1622 68.5458C71.1882 68.5772 71.1363 68.6714 71.022 68.7918C70.913 68.8964 70.7676 69.1215 70.6897 69.2942C70.5703 69.5611 70.5547 69.6448 70.5755 70.0269C70.5911 70.3723 70.6274 70.5032 70.7468 70.7282C71.1778 71.5237 72.1177 71.8273 72.9277 71.4243C74.1635 70.8119 74.1323 69.0482 72.8757 68.4359C72.6733 68.3364 72.5279 68.305 72.1903 68.2998L71.7594 68.2946L70.8403 67.431C68.8516 65.5626 67.8961 64.809 66.8992 64.3275C65.9074 63.846 64.0121 62.6842 62.5427 61.6584L62.0753 61.3287L58.4406 61.3025C55.153 61.2813 54.646 61.2875 54.2484 61.0804C54.1543 61.0314 54.0663 60.9704 53.949 60.8943C53.6167 60.6797 52.329 59.4393 52.625 59.6225C53.2014 59.9784 53.5129 60.1406 53.9231 60.2977C54.0885 60.3622 54.2169 60.4145 54.3484 60.4569C54.9315 60.6448 55.5765 60.6378 59.7751 60.6378H64.4379L64.8118 60.9414C65.7672 61.7212 67.1588 62.6475 68.7737 63.5791C70.0251 64.3014 72.9692 65.7877 74.5893 66.5099C75.8303 67.0647 77.6269 67.8183 77.6269 67.7869C77.6269 67.7765 76.9986 67.4363 76.2301 67.0333C71.2972 64.4322 67.8182 62.2969 66.1566 60.8419C65.7413 60.4808 65.3206 59.9575 65.3206 59.7952C65.3206 59.7062 65.2739 59.6958 64.8429 59.6958C62.8802 59.6906 55.5795 59.5335 55.3614 59.4917C54.6968 59.3608 53.6842 58.9003 52.6873 58.2722L52.168 57.9425L52.5263 57.9059C52.7236 57.885 58.6223 57.7855 65.6322 57.6808C72.6421 57.5762 78.5771 57.4767 78.8212 57.461L79.2625 57.4244L78.925 57.3825C78.3382 57.3093 75.8251 57.0842 74.6931 57.0057C71.048 56.7388 69.1371 56.7074 59.4012 56.7231C51.2074 56.7388 50.6311 56.7336 50.361 56.6498C49.8781 56.4981 49.6029 56.273 49.2446 55.7287C48.7098 54.928 48.4969 54.2214 48.4969 53.2271C48.4969 52.5467 48.5956 51.971 48.8189 51.3325C49.6341 49.0036 51.6332 47.0514 53.8192 46.4548C54.3489 46.3082 55.4185 46.2559 55.9274 46.3501C56.4934 46.4496 56.6128 46.6066 56.9088 47.648C57.2099 48.7 57.4903 49.26 57.9577 49.7781C58.451 50.3224 59.1104 50.7202 60.0399 51.0342C60.5176 51.1964 61.7326 51.4476 61.7845 51.4005C61.7949 51.3901 61.7378 51.2697 61.6599 51.1389C61.5872 51.0028 61.2342 50.2805 60.8863 49.5269C60.0555 47.7265 59.853 47.3811 59.2714 46.7897C58.9079 46.4234 58.7106 46.2664 58.3886 46.1041C57.6306 45.7169 56.8101 45.5232 55.486 45.429L55.0291 45.3976L55.2524 45.1621C55.5588 44.8481 56.3688 44.309 56.9244 44.0526C58.9339 43.1105 61.5197 42.6971 65.0403 42.7494C66.5513 42.7703 66.6655 42.7808 66.8057 42.8803C67.1432 43.1105 67.3977 43.1733 68.1298 43.1995C69.511 43.2414 71.2038 42.8331 72.72 42.0847C73.4002 41.7498 73.9973 41.3049 73.9246 41.1846C73.9039 41.1532 73.7896 41.0904 73.665 41.0485C73.5926 41.0231 73.4285 40.963 73.2376 40.894C73.1137 40.8493 72.9785 40.8007 72.8498 40.7554C71.183 40.1483 69.9835 39.9285 69.0696 40.0646C68.0467 40.2164 67.2055 40.6455 66.3747 41.4462C66.0216 41.7864 65.9178 41.8597 65.7516 41.8806C65.6426 41.8911 63.929 41.9068 61.9455 41.9225L58.3367 41.9487L58.7002 41.6032C59.6089 40.7502 60.881 39.7506 61.6755 39.2638C61.9403 39.1016 62.4336 38.8399 62.7763 38.6829C63.8045 38.2066 64.6456 37.6885 65.7828 36.8355L66.3799 36.3854L66.8472 36.4011C68.6958 36.4482 70.5391 35.4171 71.6711 33.7005C71.9619 33.2661 72.4344 32.366 72.4344 32.2508C72.4344 32.1514 70.2795 32.2665 69.4279 32.4078C67.6521 32.7061 66.6603 33.6116 66.0268 35.5114C65.9437 35.7573 65.8711 35.8777 65.7828 35.9196C65.7153 35.9562 65.3881 36.1132 65.061 36.2702C64.2147 36.6784 62.5375 37.6257 60.7357 38.7195C59.8841 39.2377 59.1779 39.6511 59.1675 39.6406C59.1571 39.6302 59.6452 38.6358 60.2528 37.4268L61.3484 35.2287L61.6859 35.0456C62.1532 34.7943 62.9061 34.0355 63.171 33.554C63.7785 32.4445 64.0173 30.9267 63.8667 29.1054C63.8356 28.671 63.7889 28.2314 63.7733 28.1215L63.7369 27.9174L63.2021 28.3204C62.5427 28.8228 61.717 29.6079 61.3743 30.0632C61.0057 30.5551 60.6682 31.2669 60.5124 31.8792C60.3566 32.502 60.2787 33.5592 60.3203 34.4699C60.3514 35.0822 60.3462 35.1031 60.1801 35.5532C59.8374 36.4743 59.4843 37.2908 59.0585 38.1334C58.2017 39.8343 57.4332 40.9124 56.187 42.1633C55.081 43.2675 54.4008 43.7857 52.2615 45.1202C50.953 45.9367 50.4649 46.2716 49.8626 46.7636C48.3619 47.9778 47.3598 49.4379 46.6536 51.4319L46.4251 52.0809L46.4199 38.8818L46.7211 38.5102C47.1105 38.0235 47.3286 37.6571 47.5104 37.1599C47.6661 36.7517 47.9361 36.2964 48.4086 35.6631L48.6683 35.3177L50.4389 35.2968C52.059 35.2758 52.2459 35.2654 52.6198 35.1607C53.5441 34.9042 54.3333 34.2919 55.5224 32.9207C55.8132 32.5805 55.9482 32.3921 55.9066 32.3712C55.8236 32.3241 54.8422 32.1304 54.3645 32.0676C51.6072 31.7065 49.5718 32.4183 48.7877 34.0145C48.6475 34.3024 48.5437 34.4385 48.3411 34.5902C47.9206 34.9042 47.1573 35.8777 46.6068 36.804L46.4303 37.0919L46.394 35.6369C46.3213 32.9207 46.4667 31.2826 46.9132 29.9376C47.1105 29.3252 47.5571 28.4355 47.9361 27.9017C48.3464 27.3103 49.2239 26.4154 49.7691 26.0333C50.5272 25.4942 51.3372 24.6987 52.1161 23.7305C52.3238 23.4741 52.4432 23.3694 52.5627 23.3485C52.6561 23.3275 52.9625 23.2333 53.2481 23.1339C54.1048 22.846 54.6449 22.5059 55.1174 21.9511C55.7716 21.1818 55.9897 20.4438 56.1559 18.4446C56.1974 17.9055 56.2597 17.3455 56.2857 17.1938C56.3169 17.042 56.3272 16.9112 56.3169 16.8955C56.3013 16.885 56.1559 16.9687 55.9897 17.0839L55.9774 17.092C55.7986 17.2103 55.2824 17.5517 54.8058 17.8532C52.9988 19.0046 52.3394 19.6221 51.8513 20.6165C51.5138 21.3021 51.3788 21.815 51.2905 22.6943L51.2282 23.3328L50.9114 23.5735C49.2343 24.861 47.3442 26.9282 46.0772 28.8647L45.8228 29.252L45.7968 18.0364L46.0045 17.7695C46.4407 17.2147 46.8042 16.3669 46.9392 15.5975C47.043 15.0114 46.9807 13.8861 46.8146 13.2738Z" fill="white"/>
<path d="M38.87 26.9806C38.0237 26.2322 37.2915 25.824 36.4867 25.6565C36.144 25.5832 35.391 25.5518 35.1522 25.5989C35.1314 25.6042 35.0674 25.616 34.9819 25.6305C34.897 25.6448 34.7909 25.6618 34.6849 25.6774C34.472 25.7141 33.8177 25.8554 33.2309 25.9914C32.6442 26.1327 32.0159 26.2741 31.829 26.3107C31.642 26.3421 31.4603 26.3892 31.424 26.4101C31.3357 26.452 32.1354 27.2213 32.7636 27.6976C33.3192 28.1215 34.2279 28.5821 34.7576 28.7129C35.2612 28.8385 36.0245 28.849 36.5646 28.7391C36.7722 28.692 37.2759 28.5507 37.6758 28.4251C38.8856 28.0378 39.2543 27.9645 39.9293 27.9645C40.4849 27.9697 40.9522 28.0482 41.4091 28.221C41.5026 28.2523 41.4974 28.2419 41.3884 28.1215C41.0042 27.6924 40.2201 27.3522 39.6333 27.3522H39.2958L38.87 26.9806Z" fill="white"/>
<path d="M57.6877 26.049C56.9296 25.8763 56.1819 25.7088 56.0261 25.6774C55.538 25.5727 54.541 25.5623 54.1308 25.6565C53.3312 25.8344 52.6198 26.2322 51.8098 26.9492L51.358 27.3522H51.0205C50.5895 27.3522 50.091 27.5092 49.712 27.7656C49.3641 28.0011 49.0733 28.2838 49.2499 28.221C49.6912 28.0535 50.1793 27.9697 50.7037 27.9645C51.3684 27.9645 51.7526 28.0378 52.8119 28.378C53.8764 28.7181 54.3541 28.8176 54.9668 28.8176C56.0988 28.8176 57.1321 28.357 58.4042 27.2789C58.6535 27.0643 58.9598 26.7817 59.0845 26.6509C59.3077 26.4206 59.3077 26.4154 59.1883 26.3892C59.1208 26.3787 58.4458 26.227 57.6877 26.049Z" fill="white"/>
<path d="M41.783 40.2373C40.9989 39.0283 40.2045 38.5259 38.8648 38.3951C38.5533 38.3689 38.2729 38.348 38.2417 38.3532C38.2158 38.3584 38.086 38.3689 37.9562 38.3793C37.8263 38.3898 37.3746 38.4474 36.9436 38.505C36.4036 38.5835 36.0557 38.6044 35.8116 38.5782L35.4534 38.5468L35.5988 38.798C36.2426 39.9285 37.224 41.0485 37.9406 41.4776C38.6883 41.9225 39.5035 42.1214 40.5784 42.1266C41.2534 42.1266 41.6324 42.0847 42.2763 41.9487C42.5204 41.8963 42.5308 41.8859 42.4996 41.7498C42.4269 41.462 42.0322 40.6141 41.783 40.2373Z" fill="white"/>
<path d="M54.8474 38.5782C54.6085 38.6044 54.245 38.5835 53.7154 38.5102C52.8482 38.3898 52.2771 38.348 51.924 38.3793C50.5012 38.4945 49.6808 38.9917 48.876 40.2373C48.6268 40.6141 48.2321 41.462 48.1594 41.7498C48.1283 41.8859 48.1387 41.8963 48.3827 41.9487C49.9664 42.2888 51.5709 42.1423 52.5834 41.5562C53.409 41.0747 54.2606 40.1483 54.9564 38.9551L55.1952 38.5468L54.8474 38.5782Z" fill="white"/>
<path d="M11.6042 60.2296C11.4328 60.0412 11.2822 59.9313 11.0797 59.858C10.7422 59.7272 10.2074 59.7167 9.88544 59.8319C9.60507 59.9313 9.26754 60.2296 9.12215 60.5018C8.96638 60.8001 8.95599 61.5589 9.11177 61.8677C9.36103 62.3754 9.85429 62.6528 10.519 62.6475C10.9707 62.6475 11.3913 62.4591 11.6405 62.1503L11.8015 61.9462H21.2466L21.9892 61.3025L22.7317 60.664L17.2848 60.6483C12.679 60.6378 11.8378 60.6274 11.8378 60.5646C11.8378 60.5227 11.734 60.3709 11.6042 60.2296Z" fill="white"/>
<path d="M81.5991 60.6849C81.4797 60.3238 81.1214 59.9575 80.7684 59.8371C80.4724 59.7324 79.9116 59.7272 79.6468 59.8214C79.3196 59.9365 79.0704 60.1249 78.9146 60.3709L78.764 60.6117L67.9169 60.664L68.6594 61.3025L69.3968 61.941L74.1168 61.9462H78.8368L79.0133 62.1503C79.1067 62.2655 79.3196 62.4225 79.4858 62.5062C80.0518 62.7836 80.8774 62.658 81.2824 62.2288C81.6459 61.8415 81.7705 61.2188 81.5991 60.6849Z" fill="white"/>
<path d="M45.8124 65.8505C45.7449 65.6725 45.6099 65.4213 45.5216 65.2853C45.4282 65.1492 45.3451 65.0393 45.3295 65.0393C45.2724 65.0393 45.018 65.4632 44.8726 65.8034C44.5922 66.4419 44.5402 66.7768 44.5039 68.2004L44.4676 69.5088L44.2754 70.0792C44.1664 70.3932 43.8496 71.1417 43.5641 71.7383C42.9773 72.9734 42.7592 73.5072 42.6709 73.9469C42.619 74.1928 42.5619 74.2975 42.3905 74.4754C42.1101 74.7528 42.0271 75.0407 42.105 75.4437C42.214 75.9827 42.5983 76.2863 43.1798 76.2863C43.7042 76.281 44.0937 76.0194 44.2391 75.5745C44.3326 75.2971 44.2754 74.8523 44.1144 74.6115C43.9743 74.3917 43.5329 74.1405 43.294 74.1405C43.159 74.1405 43.1539 74.13 43.185 73.9678C43.2317 73.6956 43.5692 72.8792 44.0522 71.843C44.3014 71.3144 44.535 70.7596 44.5714 70.6131L44.6389 70.3462L44.7168 70.5293C44.7398 70.5845 44.7949 70.7235 44.8633 70.8963C44.9181 71.0348 44.9815 71.195 45.0439 71.351C45.1841 71.7069 45.3087 71.9947 45.3295 71.9947C45.3503 71.9947 45.4749 71.7069 45.6151 71.351C45.7553 71.0003 45.9007 70.6288 45.9422 70.5293L46.0201 70.3462L46.0876 70.6131C46.124 70.7596 46.3576 71.3144 46.6068 71.843C47.0898 72.8792 47.4273 73.6956 47.474 73.9678C47.5052 74.13 47.5 74.1405 47.365 74.1405C47.1261 74.1405 46.6847 74.3917 46.5446 74.6115C46.3836 74.8523 46.3264 75.2971 46.4199 75.5745C46.5653 76.0194 46.9548 76.281 47.4792 76.2863C48.0608 76.2863 48.445 75.9827 48.554 75.4437C48.6319 75.0407 48.5489 74.7528 48.2685 74.4754C48.0971 74.2975 48.04 74.1928 47.9881 73.9469C47.8998 73.5072 47.6817 72.9734 47.0949 71.7383C46.8094 71.1417 46.4926 70.3932 46.3836 70.0792L46.1915 69.5088L46.1551 68.2004C46.1188 66.8082 46.072 66.468 45.8124 65.8505Z" fill="white"/>
<path d="M50.1222 76.3648C50.1222 76.4799 50.1326 76.5218 50.1429 76.4537C50.1534 76.391 50.1534 76.2967 50.1429 76.2444C50.1274 76.1973 50.117 76.2496 50.1222 76.3648Z" fill="white"/>
<path d="M40.5161 76.4433C40.5161 76.5741 40.5264 76.6265 40.5368 76.5584C40.5472 76.4956 40.5472 76.391 40.5368 76.3229C40.5264 76.2601 40.5161 76.3124 40.5161 76.4433Z" fill="white"/>
<path d="M50.0729 76.9199C50.0774 76.9294 50.0836 76.9234 50.091 76.8986C50.1014 76.8515 50.1014 76.7782 50.091 76.7416C50.0755 76.7102 50.0651 76.7468 50.0651 76.8358C50.0651 76.8798 50.0679 76.9093 50.0729 76.9199Z" fill="white"/>
<path d="M40.5628 76.8881C40.5628 76.9719 40.5732 77.0033 40.5887 76.9509C40.5991 76.9038 40.5991 76.8306 40.5887 76.7939C40.5732 76.7625 40.5628 76.7992 40.5628 76.8881Z" fill="white"/>
<path d="M103.12 51V39.48H104.856L108.84 47.64L112.824 39.48H114.56V51H112.76V43.616L109.224 51H108.456L104.928 43.616V51H103.12ZM119.047 51V39.48H126.488V41.288H120.975V44.128H125.528V45.936H120.975V49.192H126.488V51H119.047ZM130.647 51V39.48H132.383L136.367 47.64L140.351 39.48H142.087V51H140.287V43.616L136.751 51H135.983L132.455 43.616V51H130.647ZM151.446 51.24C150.294 51.24 149.308 50.9893 148.486 50.488C147.665 49.9813 147.033 49.2773 146.59 48.376C146.153 47.4747 145.934 46.4293 145.934 45.24C145.934 44.0507 146.153 43.0053 146.59 42.104C147.033 41.2027 147.665 40.5013 148.486 40C149.308 39.4933 150.294 39.24 151.446 39.24C152.598 39.24 153.585 39.4933 154.406 40C155.233 40.5013 155.865 41.2027 156.302 42.104C156.745 43.0053 156.966 44.0507 156.966 45.24C156.966 46.4293 156.745 47.4747 156.302 48.376C155.865 49.2773 155.233 49.9813 154.406 50.488C153.585 50.9893 152.598 51.24 151.446 51.24ZM151.446 49.424C152.22 49.4293 152.862 49.2587 153.374 48.912C153.892 48.5653 154.278 48.0773 154.534 47.448C154.796 46.8187 154.926 46.0827 154.926 45.24C154.926 44.3973 154.796 43.6667 154.534 43.048C154.278 42.424 153.892 41.9387 153.374 41.592C152.862 41.2453 152.22 41.0667 151.446 41.056C150.673 41.0507 150.03 41.2213 149.518 41.568C149.006 41.9147 148.62 42.4027 148.358 43.032C148.102 43.6613 147.974 44.3973 147.974 45.24C147.974 46.0827 148.102 46.816 148.358 47.44C148.614 48.0587 148.998 48.5413 149.51 48.888C150.028 49.2347 150.673 49.4133 151.446 49.424ZM160.799 51V39.48H165.559C165.671 39.48 165.815 39.4853 165.991 39.496C166.167 39.5013 166.329 39.5173 166.479 39.544C167.145 39.6453 167.695 39.8667 168.127 40.208C168.564 40.5493 168.887 40.9813 169.095 41.504C169.308 42.0213 169.415 42.5973 169.415 43.232C169.415 44.1707 169.177 44.9787 168.703 45.656C168.228 46.328 167.5 46.744 166.519 46.904L165.695 46.976H162.727V51H160.799ZM167.415 51L165.143 46.312L167.103 45.88L169.599 51H167.415ZM162.727 45.176H165.479C165.585 45.176 165.705 45.1707 165.839 45.16C165.972 45.1493 166.095 45.128 166.207 45.096C166.527 45.016 166.777 44.8747 166.959 44.672C167.145 44.4693 167.276 44.24 167.351 43.984C167.431 43.728 167.471 43.4773 167.471 43.232C167.471 42.9867 167.431 42.736 167.351 42.48C167.276 42.2187 167.145 41.9867 166.959 41.784C166.777 41.5813 166.527 41.44 166.207 41.36C166.095 41.328 165.972 41.3093 165.839 41.304C165.705 41.2933 165.585 41.288 165.479 41.288H162.727V45.176ZM176.182 51V46.28L172.262 39.48H174.51L177.158 44.072L179.798 39.48H182.046L178.134 46.28V51H176.182ZM195.078 51.24C193.926 51.24 192.94 50.9893 192.118 50.488C191.297 49.9813 190.665 49.2773 190.222 48.376C189.785 47.4747 189.566 46.4293 189.566 45.24C189.566 44.0507 189.785 43.0053 190.222 42.104C190.665 41.2027 191.297 40.5013 192.118 40C192.94 39.4933 193.926 39.24 195.078 39.24C196.406 39.24 197.513 39.5733 198.398 40.24C199.284 40.9013 199.905 41.7947 200.262 42.92L198.318 43.456C198.094 42.704 197.713 42.1173 197.174 41.696C196.636 41.2693 195.937 41.056 195.078 41.056C194.305 41.056 193.66 41.2293 193.142 41.576C192.63 41.9227 192.244 42.4107 191.982 43.04C191.726 43.664 191.596 44.3973 191.59 45.24C191.59 46.0827 191.718 46.8187 191.974 47.448C192.236 48.072 192.625 48.5573 193.142 48.904C193.66 49.2507 194.305 49.424 195.078 49.424C195.937 49.424 196.636 49.2107 197.174 48.784C197.713 48.3573 198.094 47.7707 198.318 47.024L200.262 47.56C199.905 48.6853 199.284 49.5813 198.398 50.248C197.513 50.9093 196.406 51.24 195.078 51.24ZM204.259 51V39.48H206.187V44.328H211.643V39.48H213.563V51H211.643V46.136H206.187V51H204.259ZM217.246 51L220.878 39.48H223.702L227.334 51H225.35L222.054 40.664H222.486L219.23 51H217.246ZM219.27 48.504V46.704H225.318V48.504H219.27ZM231.18 51V39.48H233.108V51H231.18ZM237.744 51V39.48H239.696L245.04 47.6V39.48H246.992V51H245.04L239.696 42.88V51H237.744Z" fill="white"/>
</svg>
