<svg width="115" height="41" viewBox="0 0 115 41" fill="none" xmlns="http://www.w3.org/2000/svg">
<path d="M21.1069 5.98497C21.025 5.69002 20.8517 5.329 20.634 4.99866C20.538 4.85472 20.4491 4.73438 20.4374 4.73438C20.4046 4.73438 20.0932 5.21574 19.9832 5.4399C19.7772 5.85284 19.6882 6.21386 19.6882 6.63152C19.6882 7.16007 19.8427 7.64143 20.133 8.0119L20.2267 8.12987V10.6618C20.2243 12.658 20.2196 13.1842 20.1962 13.1535C20.1798 13.1323 20.0815 12.9907 19.9762 12.835C19.5712 12.2451 18.9999 11.582 18.5083 11.1313C18.2578 10.9001 17.8879 10.5933 17.8036 10.5461C17.7849 10.5343 17.7638 10.4281 17.7474 10.2488C17.6796 9.54329 17.4829 9.10912 17.0475 8.69383C16.8485 8.50506 16.7244 8.41539 16.0829 7.99773C15.8819 7.86726 15.6921 7.74303 15.5909 7.67685C15.5531 7.65207 15.5277 7.63543 15.5187 7.62964L15.4579 7.58952L15.4883 7.73582C15.5047 7.8184 15.5351 8.08504 15.5562 8.3328C15.603 8.90855 15.6288 9.06429 15.7107 9.32385C15.905 9.94206 16.3498 10.3196 17.0919 10.506C17.2418 10.5414 17.2535 10.5509 17.3729 10.6995C17.7217 11.1384 18.0822 11.49 18.4591 11.7543C18.6839 11.9124 19.0842 12.3229 19.2621 12.5801C19.433 12.8208 19.6344 13.2219 19.7233 13.498C19.9247 14.1044 19.9902 14.843 19.9574 16.0676L19.9411 16.7236L19.8615 16.5938C19.6133 16.1762 19.2692 15.7373 19.0795 15.5957C18.9882 15.5273 18.9414 15.4659 18.8735 15.3291C18.7213 15.0153 18.4123 14.7463 18.026 14.5905C17.6023 14.4206 16.9632 14.3711 16.3521 14.4584C16.1016 14.4961 15.6756 14.5787 15.6568 14.5952C15.6334 14.6141 15.9542 14.9893 16.2164 15.2536C16.5465 15.5839 16.804 15.7491 17.1411 15.8506C17.298 15.9001 17.3729 15.9048 18.122 15.9119L18.932 15.9237L19.0491 16.0795C19.2621 16.365 19.3839 16.5703 19.4541 16.7543C19.536 16.9785 19.6344 17.1436 19.8123 17.3631L19.9457 17.5306L19.9434 23.4816L19.8404 23.1866C19.7046 22.8044 19.4237 22.2428 19.227 21.9596C19.021 21.6694 18.5504 21.1928 18.225 20.9497C18.0846 20.8435 17.6842 20.5793 17.3354 20.3622C16.3662 19.7534 16.0618 19.5269 15.5819 19.0573C14.8351 18.3282 14.3177 17.4999 13.8144 16.2375L13.6833 15.9072L13.6692 15.2819C13.6552 14.6354 13.6365 14.4843 13.5311 14.1705C13.4141 13.8213 13.194 13.498 12.8522 13.1748C12.6392 12.9742 12.1522 12.5825 12.1335 12.599C12.1124 12.6226 12.0562 13.2998 12.0562 13.5665C12.0562 14.692 12.377 15.3975 13.084 15.8128L13.2338 15.9001L13.709 16.8817C13.9736 17.4197 14.1843 17.8633 14.1796 17.868C14.1773 17.8728 13.9361 17.7312 13.6482 17.5542C12.59 16.9077 11.5014 16.306 11.2204 16.2069C11.1783 16.1927 11.1432 16.1691 11.1432 16.155C11.1432 16.1408 11.1011 16.0181 11.0519 15.8812C10.8552 15.355 10.5673 14.994 10.2068 14.8123C9.84389 14.633 9.43887 14.5622 8.64525 14.5339C8.33153 14.5245 8.21682 14.5268 8.21682 14.5457C8.21682 14.6047 8.41348 14.9869 8.54926 15.1922C8.71548 15.4424 9.05026 15.7939 9.27032 15.9473C9.70811 16.2564 10.2559 16.4287 10.7452 16.4098L10.9442 16.4027L11.183 16.5868C11.6489 16.9431 12.1452 17.2498 12.5479 17.4292C13.084 17.6698 13.7395 18.1394 14.4207 18.7718L14.5729 18.9134L12.9341 18.9016C12.0328 18.8945 11.2602 18.885 11.2181 18.8803C11.1596 18.8732 11.094 18.826 10.9583 18.6963C10.3121 18.0757 9.63787 17.9152 8.69441 18.163C8.24959 18.2786 7.5379 18.5358 7.5379 18.583C7.5379 18.6467 7.80479 18.8379 8.08807 18.9747C8.73654 19.2956 9.47399 19.482 10.078 19.482C10.3894 19.482 10.5439 19.449 10.7148 19.3522L10.8272 19.2862L11.5529 19.2744C12.7913 19.2555 13.7254 19.3593 14.5448 19.6118C15.1582 19.7982 15.706 20.0932 15.9869 20.3858L16.0642 20.4684L15.8582 20.4825C14.5589 20.5769 14.1117 20.8695 13.5967 21.9549C13.5077 22.146 13.3392 22.4976 13.2244 22.736C13.1097 22.9743 13.0161 23.1725 13.0161 23.1772C13.0161 23.2055 13.6833 23.0569 13.894 22.9814C14.2943 22.8374 14.6338 22.6015 14.8351 22.3301C14.9826 22.1295 15.0997 21.8652 15.2167 21.4759C15.3572 21.0016 15.397 20.9474 15.6568 20.8978C15.8675 20.8553 16.3756 20.8789 16.605 20.9426C17.4361 21.1715 18.2344 21.8487 18.6675 22.6911C18.9086 23.163 19.0093 23.5477 19.0093 23.9984C19.0093 24.4467 18.9133 24.7652 18.6722 25.1262C18.5106 25.3716 18.3866 25.4731 18.1688 25.5415C18.0471 25.5793 17.7872 25.5817 14.093 25.5746C9.68235 25.5675 8.88404 25.5817 7.19844 25.702C6.68809 25.7374 5.58543 25.8365 5.29044 25.8719L5.13828 25.8908L5.33727 25.9073C5.4473 25.9144 8.12318 25.9592 11.2837 26.0064C14.4442 26.0536 17.1036 26.0984 17.1903 26.1079L17.3518 26.1244L17.113 26.273C16.6612 26.5585 16.2117 26.7615 15.9073 26.8228C15.8137 26.8417 12.5104 26.9125 11.6442 26.9148C11.4924 26.9148 11.4476 26.9148 11.4286 26.9372C11.4207 26.9465 11.4173 26.9598 11.4124 26.9786C11.2977 27.4481 9.51378 28.6232 6.44929 30.2537C6.14027 30.4165 5.91318 30.5439 5.94596 30.5345C5.97873 30.5251 6.24094 30.4189 6.53123 30.2962C8.65461 29.3972 10.497 28.3873 11.5833 27.5283L11.8245 27.3396H13.9127C15.3384 27.3396 16.0455 27.3325 16.1391 27.316C16.42 27.2617 16.8648 27.0729 17.0966 26.9101C17.2347 26.811 17.1739 26.8936 16.9444 27.1178C16.811 27.2475 16.6354 27.3962 16.5535 27.4528C16.5018 27.4874 16.4629 27.5152 16.4212 27.5375C16.2437 27.6325 16.0146 27.6297 14.5284 27.6392L12.8943 27.6511L12.3161 28.0357C11.5669 28.5336 11.094 28.8191 10.7148 29.0008C10.2606 29.2178 9.85091 29.5411 8.94724 30.3882L8.51883 30.7917L8.32685 30.7941C8.16531 30.7964 8.11147 30.8082 8.00144 30.8625C7.7486 30.9876 7.58473 31.2542 7.58473 31.5397C7.58473 31.955 7.90546 32.2759 8.31982 32.2806C8.46499 32.2806 8.5118 32.2712 8.64525 32.2051C8.93086 32.0635 9.07366 31.8158 9.05494 31.4925C9.04323 31.292 8.99173 31.1692 8.85595 31.0182C8.78337 30.938 8.77634 30.9191 8.80444 30.8932C8.90979 30.7941 10.2583 29.7299 10.3683 29.6591C10.4409 29.6119 10.8904 29.3453 11.3656 29.0668C12.398 28.4628 12.7679 28.2339 12.9599 28.0758L13.1027 27.9578L13.4141 27.9318C13.7465 27.9035 14.5612 27.8965 14.6502 27.92C14.6947 27.9342 14.6385 27.972 14.3341 28.1348C12.6181 29.0574 11.1409 30.0555 10.0522 31.0277C9.73854 31.3085 9.53018 31.5161 9.56529 31.5161C9.60041 31.5161 10.1155 31.2495 10.3402 31.1126C10.6961 30.8979 11.1807 30.5723 12 30.0012C13.5405 28.9276 14.395 28.3849 15.013 28.0923C15.1652 28.0215 15.1676 28.0215 15.2893 28.0569C15.802 28.2103 16.605 27.9177 17.4876 27.2499C17.9652 26.8889 18.5013 26.2943 18.6113 26.0087C18.6511 25.9002 18.6628 25.9545 18.6347 26.1149C18.52 26.752 17.7615 27.5637 16.8508 28.0262C16.399 28.2551 16.0946 28.3424 15.5983 28.3873C15.2846 28.4156 15.2542 28.425 15.0599 28.517C14.1773 28.9441 12.3137 30.6572 10.1272 33.0499C9.89538 33.3023 9.65895 33.5619 9.60041 33.6256C9.54189 33.6893 9.5091 33.7318 9.52784 33.72C9.54657 33.7106 9.84389 33.4534 10.1904 33.149C12.8662 30.7988 14.9967 29.0244 15.3829 28.8261C15.4297 28.8025 15.6077 28.7483 15.7809 28.7082C17.0545 28.4156 17.9979 27.9389 18.4779 27.3443C18.7705 26.9833 18.911 26.6317 18.9531 26.1527L18.9695 25.971H19.227L19.2106 26.3745C19.1825 27.0352 19.0865 27.3089 18.7635 27.6369C18.3959 28.0121 17.9745 28.2386 17.0591 28.5571C16.5465 28.7341 16.2117 28.8875 15.8231 29.1234C15.0481 29.593 14.3365 30.1829 13.4258 31.1008C12.8686 31.6624 12.4378 32.1532 12.089 32.6133L11.89 32.88L11.698 32.8894C11.3586 32.9083 11.1034 33.0782 11.0004 33.3566C10.9325 33.5407 10.9442 33.8616 11.0261 34.0244C11.2134 34.3949 11.7097 34.5364 12.1241 34.3406C12.2599 34.2769 12.384 34.1495 12.4566 34.0032C12.5057 33.904 12.5127 33.8545 12.5127 33.6516C12.5127 33.4416 12.5057 33.4014 12.4495 33.2953C12.391 33.1844 12.2576 33.0381 12.1592 32.9838C12.154 32.9808 12.149 32.9785 12.1466 32.9745C12.1281 32.9451 12.2531 32.8239 13.5077 31.6011C14.8421 30.2962 15.8301 29.4845 16.4434 29.1824C16.5488 29.1305 16.818 29.0291 17.0428 28.9536C17.2886 28.871 17.5742 28.7554 17.7615 28.661L18.0682 28.5052L17.9254 28.668C17.3939 29.2603 17.0475 29.7959 16.9 30.2443C16.8555 30.3811 16.8438 30.4637 16.8461 30.6313C16.8485 30.7469 16.8531 30.8601 16.8578 30.879C16.8648 30.9026 16.5863 31.2141 16.1321 31.6931C15.7294 32.1225 15.3806 32.4977 15.3619 32.5284C15.3314 32.5756 15.3244 32.6959 15.3244 33.3189C15.3221 33.8215 15.3314 34.1235 15.3548 34.2769C15.3853 34.4987 15.4602 34.7889 15.4976 34.8267C15.507 34.8385 15.5211 34.4727 15.5281 34.0126C15.5401 33.2589 15.5437 32.9366 15.668 32.6718C15.7624 32.4708 15.9264 32.303 16.2164 32.0046C16.6331 31.5751 16.9023 31.2754 17.099 31.0135C17.1598 30.9333 17.1692 30.8979 17.1856 30.6714C17.223 30.1971 17.305 29.947 17.525 29.652C17.5882 29.5671 17.9769 29.1588 18.3912 28.7436C19.1357 27.9955 19.2574 27.854 19.4073 27.5543C19.5524 27.2617 19.6414 26.7544 19.6414 26.214V25.971H20.0206L20.0089 26.568C19.9996 27.2169 19.9879 27.2759 19.8497 27.526C19.8076 27.5991 19.7257 27.7218 19.6671 27.7997C19.4986 28.0215 18.9554 28.5973 18.7447 28.779C18.4732 29.0102 18.4287 29.0597 18.3655 29.1801C18.2391 29.4302 18.1923 29.6355 18.0635 30.5487C17.923 31.535 17.806 31.8724 17.4969 32.2004C17.3658 32.342 17.0849 32.7502 16.8883 33.0853C16.7899 33.2575 16.7174 33.3566 16.6939 33.3566C16.6167 33.3566 16.4575 33.484 16.4107 33.5831C16.317 33.7766 16.3826 34.0409 16.5511 34.1542C16.5956 34.1848 16.6401 34.232 16.6495 34.2604C16.6635 34.3052 16.7174 34.9116 16.7806 35.7162L16.7993 35.9404L16.8157 35.5275C16.8344 35.0768 16.8625 34.7252 16.9046 34.4255L16.9327 34.2297L17.0357 34.1801C17.2792 34.0621 17.3495 33.7153 17.1715 33.5029C17.1388 33.4628 17.113 33.4274 17.113 33.418C17.113 33.4109 17.2698 33.149 17.4595 32.8328C17.8949 32.1155 18.1665 31.6412 18.3023 31.3557L18.41 31.1315L18.4264 30.6454C18.4662 29.5553 18.5551 29.3004 18.9835 29.0078C19.3581 28.7554 19.6086 28.5147 19.9715 28.0593C20.0534 27.9554 20.14 27.8445 20.1611 27.8115C20.1986 27.7549 20.2009 27.7667 20.2009 28.1065L20.2033 28.4604L19.9808 28.6421C19.6906 28.8828 19.4565 29.1612 19.3253 29.4278C19.1942 29.6898 19.1544 29.8455 19.1263 30.1947C19.0421 31.1952 19.014 31.2896 18.6535 31.8276C18.2461 32.4387 18.129 32.8729 18.1876 33.5855C18.1909 33.6276 18.1942 33.6691 18.1973 33.7084C18.2074 33.8365 18.2157 33.9403 18.2157 33.9583C18.218 33.9843 18.2321 33.8781 18.2484 33.7224C18.3116 33.1136 18.4123 32.8705 18.8712 32.2004C19.1919 31.7356 19.3417 31.4359 19.4565 31.0371C19.4962 30.9003 19.5103 30.7658 19.5243 30.3599C19.5501 29.6898 19.6039 29.5034 19.8521 29.2226C19.9785 29.0786 20.3648 28.8025 20.4374 28.8025C20.5099 28.8025 20.8962 29.0786 21.0226 29.2226C21.2708 29.5034 21.3246 29.6898 21.3504 30.3599C21.3644 30.7658 21.3785 30.9003 21.4183 31.0371C21.54 31.4548 21.6618 31.6931 22.0832 32.3231C22.4671 32.8965 22.5771 33.1891 22.6286 33.7696L22.6474 33.9583L22.6661 33.8167C22.6942 33.5926 22.6942 33.005 22.6637 32.8375C22.5982 32.4788 22.4905 32.2311 22.2166 31.8229C21.9965 31.4925 21.9591 31.417 21.8818 31.1692C21.8233 30.9852 21.8046 30.8389 21.7484 30.1947C21.7203 29.8455 21.6805 29.6898 21.5494 29.4278C21.4183 29.1612 21.1842 28.8828 20.8939 28.6421L20.6738 28.4604V28.1065C20.6738 27.7667 20.6761 27.7549 20.7136 27.8115C20.7347 27.8445 20.8213 27.9554 20.9032 28.0593C21.2661 28.5147 21.5166 28.7554 21.8912 29.0078C22.3196 29.3004 22.4086 29.5553 22.4484 30.6454L22.4648 31.1339L22.5865 31.3863C22.727 31.6789 23.0945 32.3207 23.4902 32.9626C23.64 33.208 23.7617 33.4133 23.7617 33.4203C23.7617 33.4274 23.7313 33.4675 23.6938 33.5124C23.5229 33.7082 23.5908 34.0527 23.8249 34.1683C23.8788 34.1966 23.9279 34.2297 23.935 34.2438C23.9631 34.3123 24.0239 34.9281 24.0497 35.4095L24.0801 35.9404L24.0965 35.6809C24.1035 35.5369 24.134 35.1523 24.1644 34.8243L24.2159 34.225L24.3049 34.1683C24.6045 33.9772 24.5554 33.4746 24.2276 33.3779C24.148 33.3519 24.1223 33.3259 24.0263 33.1584C23.853 32.854 23.5136 32.3585 23.3661 32.1933C23.1952 32.0022 23.1039 31.8417 23.0149 31.5751C22.9283 31.3085 22.8698 31.0112 22.7761 30.3363C22.6942 29.7393 22.6239 29.4278 22.5233 29.2178C22.4507 29.0621 22.4179 29.0244 22.13 28.779C21.9193 28.5973 21.3761 28.0215 21.2076 27.7997C21.1491 27.7218 21.0671 27.5991 21.025 27.526C20.8868 27.2759 20.8752 27.2169 20.8658 26.5656L20.8541 25.971H21.2333V26.2117C21.2333 26.7591 21.32 27.2594 21.4675 27.5543C21.6173 27.8516 21.7414 27.9979 22.453 28.7129C22.8487 29.1117 23.235 29.5175 23.3122 29.6166C23.5627 29.9281 23.6517 30.1829 23.6821 30.6666C23.6962 30.8837 23.7055 30.9238 23.7594 30.997C23.9326 31.2306 24.2182 31.5515 24.642 31.988C25.1406 32.5024 25.1992 32.585 25.2694 32.8729C25.3232 33.09 25.3537 33.5595 25.356 34.2391L25.3584 34.855L25.4028 34.7535C25.5152 34.5081 25.5761 33.8333 25.5527 33.1159C25.5433 32.8611 25.5293 32.6204 25.5199 32.5803C25.5105 32.5308 25.2928 32.283 24.7567 31.7143C24.2861 31.2141 24.0099 30.905 24.0169 30.8814C24.0473 30.7516 24.0263 30.4307 23.9748 30.2679C23.8437 29.8384 23.455 29.2226 23.0126 28.7436C22.7761 28.484 22.7738 28.4793 22.933 28.5737C23.146 28.7011 23.4129 28.812 23.8624 28.9654C24.0871 29.0409 24.3493 29.1423 24.443 29.1919C24.9885 29.468 25.8149 30.1263 26.8403 31.0985C27.3108 31.5444 28.7342 32.9366 28.7436 32.9578C28.7483 32.9673 28.7319 32.9814 28.7085 32.9885C28.6335 33.0121 28.4626 33.1985 28.4135 33.3094C28.3386 33.477 28.3315 33.779 28.3994 33.9583C28.5095 34.2533 28.7787 34.4232 29.1345 34.4232C29.6121 34.4232 29.9188 34.1235 29.9188 33.6539C29.9188 33.4321 29.8697 33.2905 29.7409 33.1466C29.5911 32.9791 29.4249 32.9012 29.1767 32.8894L28.98 32.8776L28.8115 32.6511C28.0787 31.6671 26.8637 30.4448 25.8687 29.6898C25.0985 29.1046 24.5998 28.8285 23.8413 28.5666C22.926 28.2528 22.4741 28.0074 22.1112 27.6369C21.7858 27.3042 21.6875 27.0281 21.6641 26.3698L21.6477 25.971H21.9029L21.931 26.2188C22.0129 26.9597 22.4109 27.5307 23.1647 27.9885C23.6423 28.2787 24.3587 28.5453 25.1289 28.72C25.2834 28.753 25.4473 28.8025 25.4965 28.8261C25.864 29.0173 28.0623 30.8483 30.7242 33.1867C31.0683 33.4911 31.3492 33.7271 31.3445 33.7153C31.3141 33.6327 29.5161 31.7261 28.781 30.997C27.3811 29.6095 26.4282 28.8143 25.8079 28.5147C25.6229 28.425 25.5878 28.4156 25.2764 28.3873C24.8995 28.3542 24.6443 28.2952 24.3353 28.1725C23.8132 27.9649 23.3239 27.6345 22.8955 27.198C22.5256 26.8228 22.2939 26.4358 22.2423 26.1126C22.2166 25.9474 22.2236 25.9026 22.2634 26.0064C22.3594 26.2612 22.7785 26.752 23.1882 27.0918C24.0942 27.8422 25.0329 28.2221 25.5808 28.0593C25.6931 28.0262 25.7072 28.0262 25.8125 28.0734C25.9764 28.1419 26.4844 28.425 26.8637 28.6562C27.3506 28.9536 27.8399 29.2815 28.76 29.9234C29.6472 30.5416 30.1951 30.9097 30.5509 31.1244C30.8038 31.2778 31.2977 31.5255 31.3141 31.509C31.3305 31.4925 30.8459 31.0395 30.4924 30.7445C29.4576 29.8738 27.971 28.8946 26.5078 28.1183C26.2644 27.9885 26.1848 27.9366 26.2152 27.9248C26.2807 27.8988 27.1212 27.9035 27.4607 27.9318C27.7673 27.9578 27.7791 27.9625 27.861 28.0357C28.0366 28.1938 28.4041 28.425 29.4927 29.0597C30.5579 29.6827 30.5837 29.6992 31.3539 30.3174C31.6104 30.5246 31.8404 30.7091 31.9711 30.814C32.0385 30.868 32.0796 30.901 32.0843 30.905C32.096 30.9191 32.0726 30.9616 32.0211 31.0159C31.972 31.0631 31.9064 31.1645 31.8713 31.2424C31.8175 31.3627 31.8104 31.4005 31.8198 31.5727C31.8268 31.7285 31.8432 31.7875 31.8971 31.8889C32.0914 32.2476 32.5151 32.3845 32.8803 32.2028C33.4375 31.9267 33.4234 31.1315 32.8569 30.8554C32.7656 30.8106 32.7 30.7964 32.5479 30.7941L32.3536 30.7917L31.9392 30.4024C31.0425 29.56 30.6118 29.2202 30.1623 29.0031C29.7151 28.786 28.8606 28.2622 28.1981 27.7997L27.9874 27.6511L26.3486 27.6392C24.8664 27.6297 24.6378 27.6325 24.4586 27.5391C24.4161 27.517 24.3765 27.4895 24.3236 27.4552C24.1738 27.3584 23.5932 26.7992 23.7266 26.8818C23.9865 27.0423 24.1269 27.1154 24.3119 27.1862C24.3864 27.2153 24.4443 27.2389 24.5036 27.258C24.7666 27.3427 25.0573 27.3396 26.9503 27.3396H29.0526L29.2212 27.4764C29.6519 27.828 30.2793 28.2457 31.0074 28.6657C31.5716 28.9913 32.899 29.6615 33.6295 29.9871C34.189 30.2372 34.999 30.577 34.999 30.5628C34.999 30.5581 34.7157 30.4047 34.3692 30.223C32.1452 29.0503 30.5767 28.0876 29.8275 27.4316C29.6402 27.2688 29.4506 27.0328 29.4506 26.9597C29.4506 26.9196 29.4295 26.9148 29.2352 26.9148C28.3503 26.9125 25.0587 26.8417 24.9604 26.8228C24.6607 26.7638 24.2042 26.5562 23.7547 26.273L23.5206 26.1244L23.6821 26.1079C23.7711 26.0984 26.4306 26.0536 29.5911 26.0064C32.7515 25.9592 35.4274 25.9144 35.5375 25.9073L35.7364 25.8908L35.5843 25.8719C35.3197 25.8389 34.1866 25.7374 33.6763 25.702C32.0328 25.5817 31.1713 25.5675 26.7817 25.5746C23.0875 25.5817 22.8276 25.5793 22.7059 25.5415C22.4882 25.4731 22.3641 25.3716 22.2025 25.1262C21.9614 24.7652 21.8654 24.4467 21.8654 23.9984C21.8654 23.6916 21.9099 23.432 22.0106 23.1442C22.3781 22.0941 23.2795 21.214 24.2651 20.945C24.5038 20.8789 24.9861 20.8553 25.2156 20.8978C25.4707 20.9426 25.5246 21.0134 25.658 21.483C25.7938 21.9573 25.9202 22.2098 26.1309 22.4434C26.3533 22.6888 26.6507 22.8681 27.0697 23.0097C27.2851 23.0828 27.8329 23.1961 27.8563 23.1748C27.861 23.1701 27.8352 23.1159 27.8001 23.0569C27.7673 22.9955 27.6082 22.6699 27.4513 22.3301C27.0767 21.5184 26.9854 21.3626 26.7232 21.096C26.5593 20.9308 26.4704 20.8601 26.3252 20.7869C25.9834 20.6123 25.6135 20.525 25.0166 20.4825L24.8105 20.4684L24.9112 20.3622C25.0493 20.2206 25.4145 19.9776 25.665 19.8619C26.571 19.4372 27.7369 19.2508 29.3242 19.2744C30.0054 19.2838 30.0569 19.2885 30.1202 19.3334C30.2723 19.4372 30.387 19.4655 30.7171 19.4773C31.3399 19.4962 32.1031 19.3121 32.7867 18.9747C33.0933 18.8237 33.3626 18.6231 33.3298 18.5689C33.3204 18.5547 33.2689 18.5264 33.2127 18.5075C33.1801 18.4961 33.1061 18.469 33.02 18.4379C32.9642 18.4177 32.9032 18.3958 32.8452 18.3754C32.0937 18.1016 31.5529 18.0025 31.1409 18.0639C30.6797 18.1323 30.3004 18.3258 29.9258 18.6868C29.7666 18.8402 29.7198 18.8732 29.6449 18.8827C29.5957 18.8874 28.8232 18.8945 27.9289 18.9016L26.3018 18.9134L26.4657 18.7576C26.8754 18.373 27.4489 17.9223 27.8071 17.7029C27.9265 17.6297 28.1489 17.5117 28.3035 17.441C28.767 17.2262 29.1463 16.9926 29.659 16.608L29.9282 16.4051L30.1389 16.4122C30.9723 16.4334 31.8034 15.9686 32.3138 15.1946C32.4449 14.9987 32.6579 14.5929 32.6579 14.541C32.6579 14.4961 31.6864 14.548 31.3024 14.6118C30.5018 14.7463 30.0546 15.1545 29.769 16.011C29.7315 16.1219 29.6988 16.1762 29.659 16.1951C29.6285 16.2116 29.481 16.2824 29.3335 16.3532C28.9519 16.5372 28.1958 16.9643 27.3834 17.4575C26.9995 17.6911 26.6811 17.8775 26.6764 17.8728C26.6717 17.868 26.8918 17.4197 27.1657 16.8746L27.6596 15.8836L27.8118 15.801C28.0225 15.6878 28.362 15.3456 28.4814 15.1285C28.7553 14.6283 28.863 13.944 28.7951 13.1228C28.781 12.927 28.76 12.7288 28.7529 12.6792L28.7366 12.5872L28.4954 12.7689C28.1981 12.9954 27.8259 13.3494 27.6714 13.5546C27.5051 13.7765 27.353 14.0974 27.2827 14.3734C27.2125 14.6542 27.1774 15.1309 27.1961 15.5415C27.2102 15.8175 27.2078 15.827 27.1329 16.0299C26.9784 16.4452 26.8192 16.8133 26.6272 17.1932C26.2409 17.9601 25.8945 18.4462 25.3326 19.0101C24.834 19.508 24.5273 19.7416 23.5627 20.3433C22.9728 20.7114 22.7527 20.8624 22.4811 21.0842C21.8046 21.6316 21.3527 22.29 21.0343 23.189L20.9313 23.4816L20.929 17.5306L21.0648 17.3631C21.2404 17.1436 21.3387 16.9785 21.4206 16.7543C21.4909 16.5703 21.6126 16.365 21.8256 16.0795L21.9427 15.9237L22.741 15.9143C23.4714 15.9048 23.5557 15.9001 23.7243 15.8529C24.141 15.7373 24.4968 15.4612 25.0329 14.843C25.164 14.6896 25.2249 14.6047 25.2062 14.5952C25.1687 14.574 24.7263 14.4867 24.5109 14.4584C23.2678 14.2956 22.35 14.6165 21.9965 15.3362C21.9333 15.4659 21.8865 15.5273 21.7952 15.5957C21.6056 15.7373 21.2614 16.1762 21.0133 16.5938L20.9337 16.7236L20.9173 16.0676C20.8845 14.843 20.9501 14.1044 21.1514 13.498C21.2404 13.2219 21.4417 12.8208 21.6126 12.5801C21.7975 12.3135 22.1932 11.91 22.439 11.7377C22.7808 11.4947 23.146 11.136 23.4972 10.6995C23.5908 10.5839 23.6447 10.5367 23.6985 10.5273C23.7407 10.5178 23.8788 10.4753 24.0075 10.4305C24.3938 10.3007 24.6373 10.1474 24.8503 9.89723C25.1453 9.55037 25.2436 9.21766 25.3186 8.31628C25.3373 8.07324 25.3654 7.82076 25.3771 7.75233C25.3911 7.6839 25.3958 7.62492 25.3911 7.61784C25.3841 7.61311 25.3186 7.65088 25.2436 7.70278L25.2381 7.70646C25.1575 7.75977 24.9247 7.91372 24.7099 8.04965C23.8952 8.56876 23.5978 8.8472 23.3778 9.29553C23.2256 9.60464 23.1647 9.83588 23.1249 10.2323L23.0969 10.5202L22.954 10.6287C22.1979 11.2092 21.3457 12.1412 20.7745 13.0143L20.6598 13.1889L20.6481 8.13223L20.7417 8.0119C20.9384 7.76178 21.1022 7.37952 21.1631 7.03265C21.2099 6.76838 21.1818 6.26105 21.1069 5.98497Z" fill="white"/>
<path d="M17.525 12.1648C17.1434 11.8274 16.8133 11.6434 16.4505 11.5678C16.296 11.5348 15.9565 11.5207 15.8488 11.5419C15.8394 11.5443 15.8106 11.5496 15.772 11.5561C15.7338 11.5626 15.6859 11.5702 15.6381 11.5773C15.5421 11.5938 15.2472 11.6575 14.9826 11.7189C14.7181 11.7826 14.4348 11.8463 14.3505 11.8628C14.2662 11.877 14.1843 11.8982 14.1679 11.9076C14.1281 11.9265 14.4886 12.2734 14.7719 12.4881C15.0224 12.6792 15.4321 12.8869 15.6709 12.9459C15.898 13.0025 16.2421 13.0072 16.4856 12.9577C16.5792 12.9364 16.8063 12.8727 16.9866 12.8161C17.5321 12.6415 17.6983 12.6084 18.0026 12.6084C18.2531 12.6108 18.4638 12.6462 18.6698 12.7241C18.712 12.7382 18.7096 12.7335 18.6605 12.6792C18.4872 12.4857 18.1337 12.3324 17.8692 12.3324H17.717L17.525 12.1648Z" fill="white"/>
<path d="M26.0092 11.7448C25.6674 11.667 25.3303 11.5914 25.26 11.5773C25.04 11.5301 24.5905 11.5254 24.4055 11.5678C24.045 11.6481 23.7243 11.8274 23.3591 12.1507L23.1554 12.3324H23.0032C22.8089 12.3324 22.5841 12.4032 22.4132 12.5188C22.2564 12.625 22.1253 12.7524 22.2049 12.7241C22.4039 12.6486 22.6239 12.6108 22.8604 12.6084C23.1601 12.6084 23.3333 12.6415 23.8109 12.7949C24.2908 12.9482 24.5062 12.9931 24.7824 12.9931C25.2928 12.9931 25.7587 12.7854 26.3323 12.2993C26.4446 12.2026 26.5827 12.0752 26.6389 12.0162C26.7396 11.9124 26.7396 11.91 26.6858 11.8982C26.6553 11.8935 26.351 11.8251 26.0092 11.7448Z" fill="white"/>
<path d="M18.8384 18.1418C18.4849 17.5967 18.1267 17.3702 17.5227 17.3112C17.3822 17.2994 17.2558 17.2899 17.2418 17.2923C17.2301 17.2947 17.1715 17.2994 17.113 17.3041C17.0545 17.3088 16.8508 17.3348 16.6565 17.3607C16.413 17.3961 16.2562 17.4056 16.1461 17.3938L15.9846 17.3796L16.0502 17.4929C16.3404 18.0025 16.7829 18.5075 17.106 18.701C17.4431 18.9016 17.8107 18.9912 18.2953 18.9936C18.5996 18.9936 18.7705 18.9747 19.0608 18.9134C19.1708 18.8898 19.1755 18.885 19.1615 18.8237C19.1287 18.6939 18.9508 18.3117 18.8384 18.1418Z" fill="white"/>
<path d="M24.7286 17.3938C24.6209 17.4056 24.457 17.3961 24.2182 17.3631C23.8273 17.3088 23.5698 17.2899 23.4106 17.3041C22.7691 17.356 22.3992 17.5802 22.0363 18.1418C21.924 18.3117 21.746 18.6939 21.7133 18.8237C21.6992 18.885 21.7039 18.8898 21.8139 18.9134C22.528 19.0667 23.2514 19.0007 23.7079 18.7364C24.0801 18.5193 24.464 18.1016 24.7778 17.5637L24.8854 17.3796L24.7286 17.3938Z" fill="white"/>
<path d="M5.23192 27.1555C5.15466 27.0706 5.08677 27.021 4.99547 26.988C4.84329 26.929 4.60217 26.9243 4.45701 26.9762C4.3306 27.021 4.17843 27.1555 4.11287 27.2782C4.04264 27.4127 4.03796 27.7549 4.10819 27.8941C4.22057 28.123 4.44297 28.248 4.74264 28.2457C4.94631 28.2457 5.13593 28.1607 5.24831 28.0215L5.32088 27.9295H9.57934L9.91413 27.6392L10.2489 27.3514L7.79308 27.3443C5.71652 27.3396 5.33727 27.3349 5.33727 27.3065C5.33727 27.2877 5.29044 27.2192 5.23192 27.1555Z" fill="white"/>
<path d="M36.7899 27.3608C36.7361 27.198 36.5746 27.0328 36.4154 26.9786C36.2819 26.9314 36.0291 26.929 35.9097 26.9715C35.7622 27.0234 35.6498 27.1083 35.5796 27.2192L35.5117 27.3278L30.6211 27.3514L30.9559 27.6392L31.2884 27.9271L33.4164 27.9295H35.5445L35.6241 28.0215C35.6662 28.0734 35.7622 28.1442 35.8371 28.182C36.0923 28.307 36.4645 28.2504 36.6471 28.0569C36.811 27.8823 36.8672 27.6015 36.7899 27.3608Z" fill="white"/>
<path d="M20.6551 29.6898C20.6247 29.6095 20.5638 29.4963 20.524 29.4349C20.4818 29.3736 20.4444 29.324 20.4374 29.324C20.4116 29.324 20.2969 29.5151 20.2313 29.6685C20.1049 29.9564 20.0815 30.1074 20.0651 30.7492L20.0487 31.3391L19.9621 31.5963C19.913 31.7379 19.7701 32.0753 19.6414 32.3443C19.3768 32.9012 19.2785 33.1419 19.2387 33.3401C19.2153 33.451 19.1896 33.4982 19.1123 33.5784C18.9859 33.7035 18.9484 33.8333 18.9835 34.015C19.0327 34.258 19.206 34.3949 19.4681 34.3949C19.7046 34.3925 19.8802 34.2745 19.9457 34.0739C19.9879 33.9489 19.9621 33.7483 19.8895 33.6398C19.8263 33.5407 19.6274 33.4274 19.5197 33.4274C19.4588 33.4274 19.4565 33.4227 19.4705 33.3495C19.4916 33.2268 19.6437 32.8587 19.8615 32.3915C19.9738 32.1532 20.0792 31.9031 20.0956 31.837L20.126 31.7167L20.1611 31.7993C20.1715 31.8241 20.1963 31.8868 20.2272 31.9647C20.2519 32.0272 20.2805 32.0994 20.3086 32.1697C20.3718 32.3302 20.428 32.46 20.4374 32.46C20.4467 32.46 20.5029 32.3302 20.5661 32.1697C20.6293 32.0116 20.6949 31.8441 20.7136 31.7993L20.7487 31.7167L20.7792 31.837C20.7956 31.9031 20.9009 32.1532 21.0133 32.3915C21.231 32.8587 21.3832 33.2268 21.4042 33.3495C21.4183 33.4227 21.4159 33.4274 21.3551 33.4274C21.2474 33.4274 21.0484 33.5407 20.9852 33.6398C20.9126 33.7483 20.8868 33.9489 20.929 34.0739C20.9945 34.2745 21.1701 34.3925 21.4066 34.3949C21.6688 34.3949 21.842 34.258 21.8912 34.015C21.9263 33.8333 21.8889 33.7035 21.7624 33.5784C21.6852 33.4982 21.6594 33.451 21.636 33.3401C21.5962 33.1419 21.4979 32.9012 21.2333 32.3443C21.1046 32.0753 20.9618 31.7379 20.9126 31.5963L20.826 31.3391L20.8096 30.7492C20.7932 30.1216 20.7721 29.9682 20.6551 29.6898Z" fill="white"/>
<path d="M22.5982 34.4302C22.5982 34.4822 22.6029 34.501 22.6076 34.4704C22.6123 34.442 22.6123 34.3996 22.6076 34.376C22.6005 34.3547 22.5959 34.3783 22.5982 34.4302Z" fill="white"/>
<path d="M18.2672 34.4656C18.2672 34.5246 18.2719 34.5482 18.2765 34.5176C18.2812 34.4892 18.2812 34.442 18.2765 34.4114C18.2719 34.3831 18.2672 34.4067 18.2672 34.4656Z" fill="white"/>
<path d="M22.576 34.6805C22.578 34.6848 22.5808 34.6821 22.5841 34.6709C22.5888 34.6497 22.5888 34.6167 22.5841 34.6001C22.5771 34.586 22.5724 34.6025 22.5724 34.6426C22.5724 34.6624 22.5737 34.6758 22.576 34.6805Z" fill="white"/>
<path d="M18.2882 34.6662C18.2882 34.704 18.2929 34.7181 18.2999 34.6945C18.3046 34.6733 18.3046 34.6403 18.2999 34.6237C18.2929 34.6096 18.2882 34.6261 18.2882 34.6662Z" fill="white"/>
<path d="M48.6508 23.2891V18.0951H49.4335L51.2298 21.7742L53.026 18.0951H53.8087V23.2891H52.9971V19.9599L51.4029 23.2891H51.0566L49.466 19.9599V23.2891H48.6508ZM55.8319 23.2891V18.0951H59.1863V18.9103H56.7012V20.1907H58.7535V21.0059H56.7012V22.4739H59.1863V23.2891H55.8319ZM61.0616 23.2891V18.0951H61.8443L63.6406 21.7742L65.4368 18.0951H66.2195V23.2891H65.4079V19.9599L63.8137 23.2891H63.4674L61.8768 19.9599V23.2891H61.0616ZM70.4393 23.3973C69.9199 23.3973 69.4751 23.2843 69.1048 23.0582C68.7345 22.8298 68.4495 22.5124 68.2499 22.106C68.0528 21.6996 67.9542 21.2283 67.9542 20.6921C67.9542 20.1559 68.0528 19.6846 68.2499 19.2782C68.4495 18.8718 68.7345 18.5556 69.1048 18.3296C69.4751 18.1012 69.9199 17.9869 70.4393 17.9869C70.9587 17.9869 71.4036 18.1012 71.7739 18.3296C72.1466 18.5556 72.4315 18.8718 72.6287 19.2782C72.8283 19.6846 72.9281 20.1559 72.9281 20.6921C72.9281 21.2283 72.8283 21.6996 72.6287 22.106C72.4315 22.5124 72.1466 22.8298 71.7739 23.0582C71.4036 23.2843 70.9587 23.3973 70.4393 23.3973ZM70.4393 22.5785C70.788 22.5809 71.0777 22.504 71.3086 22.3477C71.5418 22.1914 71.7162 21.9713 71.8316 21.6876C71.9494 21.4039 72.0083 21.072 72.0083 20.6921C72.0083 20.3122 71.9494 19.9827 71.8316 19.7038C71.7162 19.4225 71.5418 19.2037 71.3086 19.0474C71.0777 18.8911 70.788 18.8105 70.4393 18.8057C70.0907 18.8033 69.8009 18.8802 69.5701 19.0365C69.3392 19.1928 69.1649 19.4129 69.0471 19.6966C68.9316 19.9803 68.8739 20.3122 68.8739 20.6921C68.8739 21.072 68.9316 21.4027 69.0471 21.684C69.1625 21.9629 69.3356 22.1805 69.5665 22.3368C69.7997 22.4931 70.0907 22.5737 70.4393 22.5785ZM74.6559 23.2891V18.0951H76.802C76.8525 18.0951 76.9175 18.0975 76.9968 18.1024C77.0762 18.1048 77.1495 18.112 77.2168 18.124C77.5174 18.1697 77.7651 18.2695 77.9599 18.4234C78.157 18.5773 78.3025 18.772 78.3963 19.0077C78.4925 19.2409 78.5406 19.5006 78.5406 19.7868C78.5406 20.21 78.4336 20.5743 78.2196 20.8797C78.0055 21.1826 77.6773 21.3702 77.2349 21.4423L76.8634 21.4748H75.5252V23.2891H74.6559ZM77.6388 23.2891L76.6145 21.1754L77.4982 20.9807L78.6235 23.2891H77.6388ZM75.5252 20.6632H76.766C76.8141 20.6632 76.8682 20.6608 76.9283 20.656C76.9884 20.6512 77.0437 20.6416 77.0942 20.6272C77.2385 20.5911 77.3515 20.5274 77.4333 20.436C77.5174 20.3446 77.5763 20.2412 77.61 20.1258C77.6461 20.0104 77.6641 19.8974 77.6641 19.7868C77.6641 19.6762 77.6461 19.5631 77.61 19.4477C77.5763 19.3299 77.5174 19.2253 77.4333 19.1339C77.3515 19.0426 77.2385 18.9788 77.0942 18.9428C77.0437 18.9283 76.9884 18.9199 76.9283 18.9175C76.8682 18.9127 76.8141 18.9103 76.766 18.9103H75.5252V20.6632ZM81.5919 23.2891V21.161L79.8245 18.0951H80.838L82.0319 20.1655L83.2222 18.0951H84.2357L82.472 21.161V23.2891H81.5919ZM90.1112 23.3973C89.5919 23.3973 89.147 23.2843 88.7767 23.0582C88.4064 22.8298 88.1214 22.5124 87.9219 22.106C87.7247 21.6996 87.6261 21.2283 87.6261 20.6921C87.6261 20.1559 87.7247 19.6846 87.9219 19.2782C88.1214 18.8718 88.4064 18.5556 88.7767 18.3296C89.147 18.1012 89.5919 17.9869 90.1112 17.9869C90.71 17.9869 91.2089 18.1372 91.6081 18.4378C92.0073 18.736 92.2874 19.1387 92.4485 19.6461L91.572 19.8878C91.471 19.5487 91.2991 19.2842 91.0562 19.0942C90.8134 18.9019 90.4984 18.8057 90.1112 18.8057C89.7626 18.8057 89.4716 18.8838 89.2384 19.0401C89.0075 19.1964 88.8332 19.4165 88.7154 19.7002C88.6 19.9815 88.541 20.3122 88.5386 20.6921C88.5386 21.072 88.5963 21.4039 88.7118 21.6876C88.8296 21.9689 89.0051 22.1878 89.2384 22.3441C89.4716 22.5004 89.7626 22.5785 90.1112 22.5785C90.4984 22.5785 90.8134 22.4823 91.0562 22.29C91.2991 22.0976 91.471 21.8331 91.572 21.4964L92.4485 21.7381C92.2874 22.2455 92.0073 22.6494 91.6081 22.95C91.2089 23.2482 90.71 23.3973 90.1112 23.3973ZM94.2504 23.2891V18.0951H95.1196V20.2809H97.5795V18.0951H98.4452V23.2891H97.5795V21.0961H95.1196V23.2891H94.2504ZM100.106 23.2891L101.743 18.0951H103.016L104.654 23.2891H103.759L102.273 18.629H102.468L101 23.2891H100.106ZM101.018 22.1637V21.3522H103.745V22.1637H101.018ZM106.388 23.2891V18.0951H107.257V23.2891H106.388ZM109.348 23.2891V18.0951H110.228L112.637 21.7561V18.0951H113.517V23.2891H112.637L110.228 19.6281V23.2891H109.348Z" fill="white"/>
</svg>
