<svg width="18" height="18" viewBox="0 0 18 18" fill="none" xmlns="http://www.w3.org/2000/svg">
<path d="M12 3C13.6313 3.00908 14.5147 3.08142 15.091 3.65771C15.75 4.31672 15.75 5.37738 15.75 7.4987V11.9987C15.75 14.12 15.75 15.1807 15.091 15.8397C14.432 16.4987 13.3713 16.4987 11.25 16.4987H6.75C4.62868 16.4987 3.56802 16.4987 2.90901 15.8397C2.25 15.1807 2.25 14.12 2.25 11.9987V7.4987C2.25 5.37738 2.25 4.31672 2.90901 3.65771C3.4853 3.08142 4.36873 3.00908 6 3" stroke="black" stroke-opacity="0.7"/>
<path d="M6 2.625C6 2.00368 6.50368 1.5 7.125 1.5H10.875C11.4963 1.5 12 2.00368 12 2.625V3.375C12 3.99632 11.4963 4.5 10.875 4.5H7.125C6.50368 4.5 6 3.99632 6 3.375V2.625Z" stroke="black" stroke-opacity="0.7"/>
<path d="M11.25 9.75002L9 9.75002M9 9.75002L6.75 9.75002M9 9.75002L9 7.5M9 9.75002L9 12" stroke="black" stroke-opacity="0.7" stroke-linecap="round"/>
</svg>
