<svg width="16" height="16" viewBox="0 0 16 16" fill="none" xmlns="http://www.w3.org/2000/svg">
<path d="M9.33317 4.66602V4.66602C9.33317 3.77295 9.33317 3.32642 9.07904 3.03111C9.04487 2.99141 9.00778 2.95431 8.96807 2.92015C8.67277 2.66602 8.22624 2.66602 7.33317 2.66602H4.7665C3.77655 2.66602 3.28158 2.66602 2.97404 2.97355C2.6665 3.28109 2.6665 3.77607 2.6665 4.76601V7.33268C2.6665 8.22575 2.6665 8.67228 2.92063 8.96758C2.9548 9.00729 2.9919 9.04438 3.0316 9.07855C3.32691 9.33268 3.77344 9.33268 4.6665 9.33268V9.33268" stroke="black" stroke-opacity="0.7" stroke-width="0.525"/>
<rect x="6.6665" y="6.66602" width="6.66667" height="6.66667" rx="1.05" stroke="black" stroke-opacity="0.7" stroke-width="0.525"/>
</svg>
