<svg width="128" height="128" viewBox="0 0 128 128" fill="none" xmlns="http://www.w3.org/2000/svg">
<path fill-rule="evenodd" clip-rule="evenodd" d="M93.3335 58.6667C82.0198 58.6667 76.3629 58.6667 72.8482 55.152C69.3335 51.6373 69.3335 45.9805 69.3335 34.6667C69.3335 23.353 69.3335 17.6962 72.8482 14.1815C76.3629 10.6667 82.0198 10.6667 93.3335 10.6667C104.647 10.6667 110.304 10.6667 113.819 14.1815C117.333 17.6962 117.333 23.353 117.333 34.6667C117.333 45.9805 117.333 51.6373 113.819 55.152C110.304 58.6667 104.647 58.6667 93.3335 58.6667ZM97.3335 24.0001C97.3335 21.7909 95.5426 20.0001 93.3335 20.0001C91.1244 20.0001 89.3335 21.7909 89.3335 24.0001V30.6667H82.6668C80.4577 30.6667 78.6668 32.4576 78.6668 34.6667C78.6668 36.8759 80.4577 38.6667 82.6668 38.6667H89.3335V45.3334C89.3335 47.5426 91.1244 49.3334 93.3335 49.3334C95.5426 49.3334 97.3335 47.5426 97.3335 45.3334V38.6667H104C106.209 38.6667 108 36.8759 108 34.6667C108 32.4576 106.209 30.6667 104 30.6667H97.3335V24.0001Z" fill="#452E47" fill-opacity="0.25"/>
<path opacity="0.5" d="M117.332 67.7219C117.324 75.5597 117.264 82.2214 116.819 87.6877C116.302 94.0308 115.243 99.3312 112.872 103.733C111.827 105.675 110.542 107.414 108.978 108.978C104.538 113.417 98.8825 115.428 91.7148 116.392C84.7121 117.334 75.737 117.333 64.2845 117.333H63.7152C52.2627 117.333 43.2876 117.334 36.2849 116.392C29.1172 115.428 23.4613 113.417 19.0219 108.978C15.0863 105.042 13.0538 100.144 11.9731 94.0673C10.9113 88.0981 10.7171 80.6714 10.6768 71.4493C10.6665 69.1035 10.6665 66.6225 10.6665 64.005V63.7154C10.6664 52.2629 10.6664 43.2878 11.6079 36.2851C12.5716 29.1174 14.5825 23.4615 19.0219 19.0222C23.4613 14.5828 29.1172 12.5718 36.2849 11.6081C42.5124 10.7709 50.525 10.6782 60.2773 10.668C62.3323 10.6659 63.9998 12.3327 63.9998 14.3877C63.9998 16.4427 62.3316 18.1078 60.2766 18.11C50.3865 18.1204 43.0265 18.2106 37.2765 18.9836C30.934 19.8363 27.1103 21.4581 24.2841 24.2843C21.4579 27.1105 19.8361 30.9343 18.9834 37.2767C18.1163 43.7262 18.1084 52.2011 18.1084 64.0001C18.1084 65.441 18.1084 66.8344 18.1101 68.1837L23.0769 63.8377C27.598 59.8818 34.4118 60.1087 38.6597 64.3566L59.9421 85.6389C63.3516 89.0485 68.7186 89.5133 72.6636 86.7408L74.1431 85.7011C79.8199 81.7115 87.5004 82.1738 92.6578 86.8154L106.701 99.454C108.114 96.4855 108.953 92.5853 109.402 87.0834C109.824 81.8992 109.882 75.6027 109.89 67.7221C109.892 65.6671 111.557 64.0001 113.612 64.0001C115.667 64.0001 117.334 65.6669 117.332 67.7219Z" fill="#452E47"/>
</svg>
