<svg width="32" height="32" viewBox="0 0 32 32" fill="none" xmlns="http://www.w3.org/2000/svg">
<g opacity="0.3">
<path d="M15.9993 2.66797C8.63935 2.66797 2.66602 8.6413 2.66602 16.0013C2.66602 23.3613 8.63935 29.3346 15.9993 29.3346C23.3593 29.3346 29.3327 23.3613 29.3327 16.0013C29.3327 8.6413 23.3593 2.66797 15.9993 2.66797ZM22.186 11.7346C21.986 13.8413 21.1193 18.9613 20.6793 21.3213C20.4927 22.3213 20.1193 22.6546 19.7727 22.6946C18.9993 22.7613 18.4127 22.188 17.666 21.6946C16.4927 20.9213 15.826 20.4413 14.6927 19.6946C13.3727 18.828 14.226 18.348 14.986 17.5746C15.186 17.3746 18.5993 14.268 18.666 13.988C18.6753 13.9456 18.674 13.9015 18.6624 13.8597C18.6508 13.8179 18.6292 13.7795 18.5993 13.748C18.5193 13.6813 18.4127 13.708 18.3193 13.7213C18.1993 13.748 16.3327 14.988 12.6927 17.4413C12.1593 17.8013 11.6793 17.988 11.2527 17.9746C10.7727 17.9613 9.86601 17.708 9.18602 17.4813C8.34601 17.2146 7.69268 17.068 7.74602 16.6013C7.77268 16.3613 8.10602 16.1213 8.73268 15.868C12.626 14.1746 15.2127 13.0546 16.506 12.5213C20.2127 10.9746 20.9727 10.708 21.4793 10.708C21.586 10.708 21.8393 10.7346 21.9993 10.868C22.1327 10.9746 22.1727 11.1213 22.186 11.228C22.1727 11.308 22.1993 11.548 22.186 11.7346Z" fill="white"/>
</g>
</svg>
