<svg width="73" height="70" viewBox="0 0 73 70" fill="none" xmlns="http://www.w3.org/2000/svg">
<path d="M37.8146 3.2738C37.6328 2.61961 37.2486 1.81887 36.7657 1.08617C36.5528 0.766925 36.3555 0.5 36.3295 0.5C36.2568 0.5 35.5662 1.56766 35.3222 2.06485C34.8652 2.98073 34.6679 3.78147 34.6679 4.70782C34.6679 5.88014 35.0106 6.94778 35.6545 7.76947L35.8622 8.03114V13.6468C35.857 18.0744 35.8466 19.2415 35.7947 19.1735C35.7583 19.1264 35.5402 18.8123 35.3066 18.4669C34.4083 17.1585 33.1413 15.6879 32.0509 14.6883C31.4953 14.1754 30.6749 13.495 30.4879 13.3903C30.4464 13.3642 30.3997 13.1287 30.3633 12.7309C30.2127 11.1661 29.7766 10.2031 28.8108 9.28197C28.3694 8.86329 28.0942 8.66441 26.6714 7.73806C26.2256 7.44867 25.8046 7.17312 25.5803 7.02635C25.4963 6.97138 25.4399 6.93446 25.4201 6.92162L25.2851 6.83265L25.3526 7.15713C25.3889 7.3403 25.4564 7.93171 25.5031 8.48124C25.607 9.75823 25.6641 10.1037 25.8458 10.6793C26.2768 12.0505 27.2634 12.8879 28.9094 13.3014C29.2417 13.3799 29.2677 13.4008 29.5325 13.7305C30.3062 14.704 31.1059 15.4838 31.9418 16.07C32.4403 16.4206 33.3282 17.3312 33.7229 17.9017C34.1019 18.4355 34.5485 19.3252 34.7458 19.9376C35.1923 21.2826 35.3377 22.9207 35.2651 25.6369L35.2287 27.0919L35.0522 26.804C34.5017 25.8777 33.7384 24.9042 33.3179 24.5902C33.1153 24.4385 33.0115 24.3024 32.8609 23.9988C32.5234 23.3028 31.838 22.7061 30.9812 22.3607C30.0414 21.9839 28.6238 21.874 27.2686 22.0676C26.713 22.1514 25.7679 22.3345 25.7264 22.3712C25.6745 22.4131 26.3859 23.2452 26.9674 23.8314C27.6996 24.5641 28.2707 24.9304 29.0185 25.1555C29.3664 25.2654 29.5325 25.2758 31.1941 25.2915L32.9907 25.3177L33.2504 25.6631C33.7229 26.2964 33.9929 26.7517 34.1487 27.1599C34.3304 27.6571 34.5485 28.0235 34.9431 28.5102L35.2391 28.8818L35.2339 42.0809L35.0054 41.4267C34.7042 40.5789 34.0811 39.3333 33.645 38.7052C33.188 38.0615 32.1443 37.0043 31.4226 36.4653C31.111 36.2297 30.2231 35.6436 29.4494 35.1621C27.2998 33.8118 26.6247 33.3094 25.5602 32.2679C23.9038 30.6507 22.7563 28.8137 21.6399 26.0138L21.3491 25.2811L21.318 23.8942C21.2868 22.4602 21.2453 22.1252 21.0116 21.4291C20.752 20.6546 20.2639 19.9376 19.5058 19.2206C19.0332 18.7757 17.9532 17.9069 17.9117 17.9436C17.8649 17.9959 17.7403 19.4979 17.7403 20.0893C17.7403 22.5858 18.4517 24.1506 20.0198 25.0717L20.3522 25.2654L21.4062 27.4425C21.993 28.6358 22.4603 29.6197 22.4499 29.6302C22.4447 29.6406 21.9099 29.3266 21.2712 28.9341C18.9242 27.5001 16.5097 26.1655 15.8866 25.9457C15.7932 25.9143 15.7153 25.862 15.7153 25.8306C15.7153 25.7992 15.6218 25.527 15.5127 25.2235C15.0766 24.0564 14.4379 23.2557 13.6382 22.8527C12.8334 22.4549 11.9351 22.2979 10.1749 22.2351C9.47905 22.2142 9.22462 22.2194 9.22462 22.2613C9.22462 22.3921 9.6608 23.24 9.96196 23.6953C10.3306 24.2501 11.0732 25.0299 11.5612 25.37C12.5323 26.0556 13.7473 26.4377 14.8325 26.3958L15.2739 26.3801L15.8035 26.7883C16.8368 27.5786 17.9376 28.259 18.8308 28.6567C20.0198 29.1906 21.4737 30.232 22.9847 31.6347L23.3223 31.9487L19.6875 31.9225C17.6884 31.9068 15.9749 31.8859 15.8814 31.8754C15.7516 31.8597 15.6062 31.755 15.3051 31.4672C13.8719 30.0907 12.3765 29.7349 10.2839 30.2844C9.2973 30.5408 7.71878 31.1113 7.71878 31.216C7.71878 31.3573 8.31073 31.7812 8.93904 32.0847C10.3773 32.7965 12.013 33.21 13.3527 33.21C14.0433 33.21 14.386 33.1367 14.765 32.9221L15.0143 32.7756L16.6239 32.7494C19.3708 32.7075 21.4426 32.9378 23.26 33.4978C24.6204 33.9113 25.8354 34.5655 26.4585 35.2144L26.6299 35.3976L26.173 35.429C23.2911 35.6384 22.2994 36.2873 21.157 38.6948C20.9597 39.1187 20.5858 39.8985 20.3314 40.4271C20.077 40.9557 19.8692 41.3953 19.8692 41.4058C19.8692 41.4686 21.3491 41.1389 21.8164 40.9714C22.7044 40.6521 23.4573 40.1288 23.9038 39.5269C24.2309 39.0821 24.4906 38.4959 24.7502 37.6323C25.0618 36.5804 25.15 36.46 25.7264 36.3501C26.1937 36.2559 27.3205 36.3082 27.8294 36.4496C29.6727 36.9572 31.4433 38.4593 32.404 40.3277C32.9388 41.3744 33.1621 42.2274 33.1621 43.2271C33.1621 44.2214 32.9492 44.928 32.4144 45.7287C32.0561 46.273 31.7809 46.4981 31.298 46.6498C31.028 46.7336 30.4516 46.7388 22.2578 46.7231C12.4751 46.7074 10.7045 46.7388 6.96588 47.0057C5.83392 47.0842 3.38826 47.304 2.73397 47.3825L2.39649 47.4244L2.83784 47.461C3.08188 47.4767 9.01693 47.5762 16.0268 47.6808C23.0367 47.7855 28.9354 47.885 29.1275 47.9059L29.4858 47.9425L28.9562 48.2722C27.954 48.9055 26.957 49.3556 26.282 49.4917C26.0743 49.5335 18.7477 49.6906 16.8265 49.6958C16.4897 49.6958 16.3904 49.6958 16.3483 49.7453C16.3307 49.766 16.3231 49.7954 16.3124 49.8371C16.058 50.8786 12.1012 53.4849 5.30426 57.1013C4.61887 57.4624 4.11518 57.745 4.1879 57.7241C4.26058 57.7032 4.84215 57.4677 5.48601 57.1955C10.1956 55.2015 14.2821 52.9616 16.6914 51.0565L17.2263 50.6378H21.858C25.0202 50.6378 26.5884 50.6221 26.7961 50.5855C27.4192 50.4651 28.4057 50.0464 28.9198 49.6853C29.2261 49.4655 29.0912 49.6487 28.5823 50.1459C28.2863 50.4337 27.8969 50.7634 27.7151 50.889C27.6005 50.9657 27.5143 51.0272 27.4217 51.0768C27.0279 51.2876 26.5198 51.2813 23.2236 51.3025L19.5993 51.3287L18.3167 52.1817C16.6551 53.286 15.6062 53.9193 14.765 54.3223C13.7577 54.8038 12.849 55.5208 10.8447 57.3996L9.89446 58.2946L9.46866 58.2998C9.11037 58.305 8.99096 58.3312 8.74691 58.4516C8.1861 58.729 7.82264 59.3204 7.82264 59.9536C7.82264 60.8747 8.53401 61.5865 9.45307 61.597C9.77504 61.597 9.87887 61.576 10.1749 61.4295C10.8083 61.1155 11.1251 60.5659 11.0835 59.8489C11.0576 59.4041 10.9434 59.1319 10.6422 58.797C10.4812 58.6191 10.4656 58.5772 10.5279 58.5196C10.7616 58.2998 13.7525 55.9394 13.9965 55.7824C14.1575 55.6778 15.1545 55.0864 16.2085 54.4688C18.4985 53.129 19.3189 52.6214 19.7447 52.2707L20.0614 52.009L20.752 51.9515C21.4893 51.8887 23.2963 51.873 23.4936 51.9253C23.5923 51.9567 23.4677 52.0404 22.7927 52.4015C18.9865 54.4479 15.7101 56.6617 13.2955 58.8179C12.5998 59.4407 12.1376 59.9013 12.2155 59.9013C12.2934 59.9013 13.4358 59.3099 13.9342 59.0064C14.7235 58.5301 15.7983 57.8078 17.6157 56.5413C21.0324 54.16 22.9276 52.9563 24.2985 52.3073C24.636 52.1503 24.6412 52.1503 24.9112 52.2288C26.0483 52.569 27.8294 51.9201 29.7869 50.4389C30.8462 49.6382 32.0353 48.3193 32.2793 47.6861C32.3676 47.4453 32.3936 47.5657 32.3313 47.9216C32.0768 49.3347 30.3945 51.135 28.3746 52.1608C27.3724 52.6685 26.6974 52.8621 25.5966 52.9616C24.9008 53.0243 24.8333 53.0453 24.4023 53.2494C22.4447 54.1967 18.3115 57.9963 13.4617 63.3031C12.9476 63.8631 12.4232 64.4388 12.2934 64.5801C12.1636 64.7214 12.0909 64.8156 12.1324 64.7895C12.174 64.7685 12.8334 64.1981 13.6019 63.5229C19.5369 58.3103 24.2621 54.3746 25.1189 53.935C25.2227 53.8827 25.6174 53.7623 26.0016 53.6733C28.8263 53.0243 30.9189 51.9672 31.9834 50.6483C32.6324 49.8476 32.944 49.0678 33.0375 48.0053L33.0738 47.6023H33.645L33.6086 48.4973C33.5463 49.9627 33.3334 50.5698 32.6169 51.2973C31.8016 52.1294 30.867 52.6318 28.8367 53.3384C27.6996 53.7309 26.957 54.0711 26.0951 54.5944C24.3763 55.6359 22.7978 56.9443 20.778 58.9802C19.5421 60.2258 18.5867 61.3144 17.813 62.3349L17.3717 62.9263L16.9459 62.9472C16.193 62.9891 15.627 63.3659 15.3985 63.9835C15.2479 64.3917 15.2739 65.1035 15.4556 65.4646C15.871 66.2863 16.9718 66.6003 17.8909 66.1659C18.1921 66.0246 18.4673 65.742 18.6283 65.4175C18.7373 65.1977 18.7529 65.0878 18.7529 64.6377C18.7529 64.1719 18.7373 64.0829 18.6127 63.8474C18.4829 63.6014 18.1869 63.277 17.9688 63.1566C17.9572 63.1498 17.9462 63.1447 17.9407 63.1361C17.8997 63.0707 18.177 62.802 20.9597 60.0897C23.9194 57.1955 26.1106 55.3952 27.4711 54.7253C27.7047 54.6101 28.3019 54.3851 28.8004 54.2176C29.3456 54.0344 29.9791 53.778 30.3945 53.5686L31.0747 53.2232L30.758 53.5843C29.5793 54.898 28.8108 56.086 28.4836 57.0804C28.385 57.3839 28.359 57.5671 28.3642 57.9387C28.3694 58.1951 28.3798 58.4463 28.3902 58.4882C28.4057 58.5406 27.7878 59.2314 26.7805 60.2938C25.8874 61.2463 25.1137 62.0785 25.0722 62.1465C25.0047 62.2512 24.9891 62.5181 24.9891 63.8998C24.9839 65.0145 25.0047 65.6844 25.0566 66.0246C25.1241 66.5165 25.2902 67.1603 25.3733 67.244C25.3941 67.2702 25.4252 66.459 25.4408 65.4384C25.4674 63.7667 25.4755 63.0519 25.7512 62.4647C25.9605 62.0188 26.3242 61.6465 26.9674 60.9846C27.8917 60.0321 28.4888 59.3675 28.925 58.7865C29.06 58.6086 29.0808 58.5301 29.1171 58.0277C29.2002 56.9757 29.3819 56.421 29.87 55.7667C30.0102 55.5783 30.8722 54.6729 31.7913 53.7518C33.4425 52.0928 33.7125 51.7787 34.0448 51.1141C34.3667 50.4651 34.5641 49.3399 34.5641 48.1414V47.6023H35.4052L35.3793 48.9264C35.3585 50.3657 35.3326 50.4965 35.0262 51.0513C34.9327 51.2135 34.751 51.4857 34.6212 51.6584C34.2473 52.1503 33.0426 53.4273 32.5753 53.8303C31.973 54.3432 31.8743 54.4531 31.7341 54.72C31.4537 55.2748 31.3499 55.7301 31.0643 57.7555C30.7527 59.9432 30.4931 60.6916 29.8077 61.419C29.5169 61.733 28.8938 62.6385 28.4577 63.3816C28.2396 63.7637 28.0786 63.9835 28.0267 63.9835C27.8553 63.9835 27.5022 64.2661 27.3984 64.4859C27.1907 64.9151 27.3361 65.5012 27.71 65.7525C27.8086 65.8205 27.9073 65.9252 27.928 65.988C27.9592 66.0874 28.0786 67.4324 28.2188 69.2171L28.2603 69.7143L28.2967 68.7984C28.3382 67.7988 28.4006 67.019 28.494 66.3543L28.5563 65.9199L28.7848 65.81C29.3248 65.5483 29.4806 64.779 29.086 64.308C29.0133 64.219 28.9562 64.1405 28.9562 64.1196C28.9562 64.1039 29.304 63.5229 29.7246 62.8216C30.6904 61.2306 31.2928 60.1787 31.594 59.5454L31.8328 59.0482L31.8691 57.9701C31.9574 55.5522 32.1547 54.9869 33.105 54.338C33.9358 53.778 34.4913 53.2442 35.2962 52.2341C35.4779 52.0038 35.67 51.7578 35.7168 51.6845C35.7999 51.5589 35.8051 51.5851 35.8051 52.3388L35.8103 53.1238L35.317 53.5268C34.6731 54.0606 34.1539 54.6782 33.8631 55.2696C33.5723 55.8505 33.484 56.1959 33.4217 56.9705C33.2348 59.1895 33.1725 59.3989 32.3728 60.5921C31.4693 61.9476 31.2097 62.9106 31.3395 64.4911C31.3468 64.5845 31.3541 64.6767 31.361 64.7638C31.3836 65.0479 31.4018 65.278 31.4018 65.3181C31.407 65.3756 31.4382 65.1401 31.4745 64.7947C31.6147 63.4444 31.838 62.9054 32.8557 61.419C33.5671 60.388 33.8994 59.7234 34.1539 58.8389C34.2421 58.5353 34.2733 58.237 34.3044 57.3368C34.3615 55.8505 34.481 55.437 35.0314 54.8142C35.3118 54.495 36.1686 53.8827 36.3295 53.8827C36.4905 53.8827 37.3473 54.495 37.6276 54.8142C38.178 55.437 38.2975 55.8505 38.3546 57.3368C38.3857 58.237 38.4169 58.5353 38.5052 58.8389C38.7752 59.7652 39.0452 60.2938 39.9798 61.6912C40.8314 62.9629 41.0755 63.6119 41.1897 64.8994L41.2312 65.3181L41.2728 65.004C41.3351 64.5069 41.3351 63.2037 41.2676 62.8321C41.1222 62.0366 40.8833 61.4871 40.2758 60.5817C39.7877 59.8489 39.7046 59.6815 39.5333 59.1319C39.4035 58.7237 39.3619 58.3993 39.2373 56.9705C39.175 56.1959 39.0867 55.8505 38.7959 55.2696C38.5052 54.6782 37.9859 54.0606 37.342 53.5268L36.854 53.1238V52.3388C36.854 51.5851 36.8591 51.5589 36.9422 51.6845C36.989 51.7578 37.1811 52.0038 37.3628 52.2341C38.1677 53.2442 38.7233 53.778 39.554 54.338C40.5043 54.9869 40.7016 55.5522 40.7899 57.9701L40.8262 59.0534L41.0962 59.6134C41.4078 60.2624 42.223 61.686 43.1005 63.1095C43.4329 63.6538 43.7028 64.1091 43.7028 64.1248C43.7028 64.1405 43.6353 64.2295 43.5523 64.3289C43.1732 64.7633 43.3238 65.5274 43.8431 65.7839C43.9625 65.8467 44.0715 65.9199 44.0871 65.9513C44.1494 66.1031 44.2844 67.4691 44.3415 68.5367L44.409 69.7143L44.4454 69.1386C44.461 68.8193 44.5285 67.9663 44.596 67.2388L44.7102 65.9095L44.9075 65.7839C45.5721 65.3599 45.4631 64.2452 44.7362 64.0306C44.5596 63.973 44.5025 63.9155 44.2896 63.5439C43.9054 62.8687 43.1525 61.7697 42.8253 61.4033C42.4463 60.9794 42.2438 60.6235 42.0464 60.0321C41.8543 59.4407 41.7245 58.7813 41.5168 57.2845C41.3351 55.9604 41.1793 55.2696 40.956 54.8038C40.7951 54.4584 40.7224 54.3746 40.0837 53.8303C39.6164 53.4273 38.4117 52.1503 38.0379 51.6584C37.908 51.4857 37.7263 51.2135 37.6328 51.0513C37.3264 50.4965 37.3005 50.3657 37.2797 48.9212L37.2538 47.6023H38.0949V48.1362C38.0949 49.3504 38.2871 50.4599 38.6142 51.1141C38.9465 51.7735 39.2217 52.098 40.8002 53.6838C41.6778 54.5683 42.5345 55.4684 42.7059 55.6882C43.2615 56.3791 43.4588 56.9443 43.5263 58.0172C43.5575 58.4987 43.5783 58.5877 43.6977 58.7499C44.0819 59.268 44.7154 59.9798 45.6552 60.948C46.7613 62.0889 46.8911 62.2721 47.0468 62.9106C47.1663 63.3921 47.2338 64.4336 47.239 65.9409L47.2441 67.3068L47.3428 67.0818C47.5921 66.5375 47.7271 65.0407 47.6751 63.4497C47.6544 62.8844 47.6232 62.3506 47.6024 62.2616C47.5817 62.1517 47.0988 61.6022 45.9097 60.3409C44.866 59.2314 44.2533 58.5458 44.2689 58.4935C44.3363 58.2056 44.2896 57.4938 44.1754 57.1327C43.8846 56.1802 43.0227 54.8142 42.0413 53.7518C41.5168 53.1761 41.5116 53.1657 41.8647 53.375C42.3372 53.6576 42.9292 53.9036 43.9261 54.2438C44.4246 54.4113 45.0062 54.6363 45.2139 54.7462C46.4237 55.3585 48.2567 56.8187 50.531 58.9749C51.5747 59.9641 54.7317 63.0519 54.7525 63.099C54.7629 63.1199 54.7266 63.1513 54.6746 63.1671C54.5085 63.2194 54.1294 63.6329 54.0204 63.8788C53.8542 64.2504 53.8386 64.9203 53.9892 65.3181C54.2333 65.9723 54.8304 66.3491 55.6196 66.3491C56.6789 66.3491 57.3591 65.6844 57.3591 64.6429C57.3591 64.151 57.2501 63.8369 56.9645 63.5177C56.6322 63.1461 56.2636 62.9734 55.7131 62.9472L55.277 62.9211L54.9031 62.4186C53.2778 60.2362 50.5829 57.5252 48.3761 55.8505C46.6678 54.5526 45.5618 53.9402 43.8794 53.3593C41.8491 52.6632 40.847 52.1189 40.0421 51.2973C39.3204 50.5593 39.1023 49.947 39.0504 48.4868L39.014 47.6023H39.58L39.6423 48.1519C39.8241 49.7952 40.7068 51.0617 42.3788 52.0771C43.438 52.7208 45.0269 53.3122 46.7353 53.6995C47.078 53.7728 47.4415 53.8827 47.5505 53.935C48.3657 54.3589 53.2415 58.4202 59.1454 63.6067C59.9087 64.2818 60.5318 64.8052 60.5214 64.779C60.4539 64.5958 56.466 60.3671 54.8356 58.7499C51.7305 55.6725 49.6171 53.9088 48.2411 53.2442C47.8309 53.0453 47.753 53.0243 47.0624 52.9616C46.2264 52.8883 45.6604 52.7574 44.975 52.4853C43.8171 52.0247 42.7319 51.292 41.7816 50.3238C40.9612 49.4917 40.4472 48.6334 40.3329 47.9164C40.2758 47.55 40.2914 47.4506 40.3797 47.6808C40.5926 48.2461 41.522 49.3347 42.4307 50.0883C44.4402 51.7526 46.5224 52.5952 47.7374 52.2341C47.9867 52.1608 48.0178 52.1608 48.2515 52.2655C48.615 52.4173 49.7418 53.0453 50.5829 53.5582C51.663 54.2176 52.7482 54.9451 54.7889 56.3686C56.7568 57.7398 57.9719 58.5563 58.7611 59.0325C59.3219 59.3727 60.4175 59.9222 60.4539 59.8856C60.4902 59.8489 59.4154 58.8441 58.6313 58.1899C56.3362 56.2587 53.039 54.0868 49.7937 52.3649C49.2537 52.0771 49.0771 51.9619 49.1446 51.9358C49.29 51.8782 51.1541 51.8887 51.907 51.9515C52.5872 52.009 52.6132 52.0195 52.7949 52.1817C53.1844 52.5324 53.9996 53.0453 56.4141 54.4531C58.7767 55.8348 58.8338 55.8714 60.5422 57.2426C61.1111 57.702 61.6211 58.1113 61.9112 58.344C62.0606 58.4639 62.1516 58.5369 62.1622 58.5458C62.1882 58.5772 62.1363 58.6714 62.022 58.7918C61.913 58.8964 61.7676 59.1215 61.6897 59.2942C61.5703 59.5611 61.5547 59.6448 61.5755 60.0269C61.5911 60.3723 61.6274 60.5032 61.7468 60.7282C62.1778 61.5237 63.1177 61.8273 63.9277 61.4243C65.1635 60.8119 65.1323 59.0482 63.8757 58.4359C63.6733 58.3364 63.5279 58.305 63.1903 58.2998L62.7594 58.2946L61.8403 57.431C59.8516 55.5626 58.8961 54.809 57.8992 54.3275C56.9074 53.846 55.0121 52.6842 53.5427 51.6584L53.0753 51.3287L49.4406 51.3025C46.153 51.2813 45.646 51.2875 45.2484 51.0804C45.1543 51.0314 45.0663 50.9704 44.949 50.8943C44.6167 50.6797 43.329 49.4393 43.625 49.6225C44.2014 49.9784 44.5129 50.1406 44.9231 50.2977C45.0885 50.3622 45.2169 50.4145 45.3484 50.4569C45.9315 50.6448 46.5765 50.6378 50.7751 50.6378H55.4379L55.8118 50.9414C56.7672 51.7212 58.1588 52.6475 59.7737 53.5791C61.0251 54.3014 63.9692 55.7877 65.5893 56.5099C66.8303 57.0647 68.6269 57.8183 68.6269 57.7869C68.6269 57.7765 67.9986 57.4363 67.2301 57.0333C62.2972 54.4322 58.8182 52.2969 57.1566 50.8419C56.7413 50.4808 56.3206 49.9575 56.3206 49.7952C56.3206 49.7062 56.2739 49.6958 55.8429 49.6958C53.8802 49.6906 46.5795 49.5335 46.3614 49.4917C45.6968 49.3608 44.6842 48.9003 43.6873 48.2722L43.168 47.9425L43.5263 47.9059C43.7236 47.885 49.6223 47.7855 56.6322 47.6808C63.6421 47.5762 69.5771 47.4767 69.8212 47.461L70.2625 47.4244L69.925 47.3825C69.3382 47.3093 66.8251 47.0842 65.6931 47.0057C62.048 46.7388 60.1371 46.7074 50.4012 46.7231C42.2074 46.7388 41.6311 46.7336 41.361 46.6498C40.8781 46.4981 40.6029 46.273 40.2446 45.7287C39.7098 44.928 39.4969 44.2214 39.4969 43.2271C39.4969 42.5467 39.5956 41.971 39.8189 41.3325C40.6341 39.0036 42.6332 37.0514 44.8192 36.4548C45.3489 36.3082 46.4185 36.2559 46.9274 36.3501C47.4934 36.4496 47.6128 36.6066 47.9088 37.648C48.2099 38.7 48.4903 39.26 48.9577 39.7781C49.451 40.3224 50.1104 40.7202 51.0399 41.0342C51.5176 41.1964 52.7326 41.4476 52.7845 41.4005C52.7949 41.3901 52.7378 41.2697 52.6599 41.1389C52.5872 41.0028 52.2342 40.2805 51.8863 39.5269C51.0555 37.7265 50.853 37.3811 50.2714 36.7897C49.9079 36.4234 49.7106 36.2664 49.3886 36.1041C48.6306 35.7169 47.8101 35.5232 46.486 35.429L46.0291 35.3976L46.2524 35.1621C46.5588 34.8481 47.3688 34.309 47.9244 34.0526C49.9339 33.1105 52.5197 32.6971 56.0403 32.7494C57.5513 32.7703 57.6655 32.7808 57.8057 32.8803C58.1432 33.1105 58.3977 33.1733 59.1298 33.1995C60.511 33.2414 62.2038 32.8331 63.72 32.0847C64.4002 31.7498 64.9973 31.3049 64.9246 31.1846C64.9039 31.1532 64.7896 31.0904 64.665 31.0485C64.5926 31.0231 64.4285 30.963 64.2376 30.894C64.1137 30.8493 63.9785 30.8007 63.8498 30.7554C62.183 30.1483 60.9835 29.9285 60.0696 30.0646C59.0467 30.2164 58.2055 30.6455 57.3747 31.4462C57.0216 31.7864 56.9178 31.8597 56.7516 31.8806C56.6426 31.8911 54.929 31.9068 52.9455 31.9225L49.3367 31.9487L49.7002 31.6032C50.6089 30.7502 51.881 29.7506 52.6755 29.2638C52.9403 29.1016 53.4336 28.8399 53.7763 28.6829C54.8045 28.2066 55.6456 27.6885 56.7828 26.8355L57.3799 26.3854L57.8472 26.4011C59.6958 26.4482 61.5391 25.4171 62.6711 23.7005C62.9619 23.2661 63.4344 22.366 63.4344 22.2508C63.4344 22.1514 61.2795 22.2665 60.4279 22.4078C58.6521 22.7061 57.6603 23.6116 57.0268 25.5114C56.9437 25.7573 56.8711 25.8777 56.7828 25.9196C56.7153 25.9562 56.3881 26.1132 56.061 26.2702C55.2147 26.6784 53.5375 27.6257 51.7357 28.7195C50.8841 29.2377 50.1779 29.6511 50.1675 29.6406C50.1571 29.6302 50.6452 28.6358 51.2528 27.4268L52.3484 25.2287L52.6859 25.0456C53.1532 24.7943 53.9061 24.0355 54.171 23.554C54.7785 22.4445 55.0173 20.9267 54.8667 19.1054C54.8356 18.671 54.7889 18.2314 54.7733 18.1215L54.7369 17.9174L54.2021 18.3204C53.5427 18.8228 52.717 19.6079 52.3743 20.0632C52.0057 20.5551 51.6682 21.2669 51.5124 21.8792C51.3566 22.502 51.2787 23.5592 51.3203 24.4699C51.3514 25.0822 51.3462 25.1031 51.1801 25.5532C50.8374 26.4743 50.4843 27.2908 50.0585 28.1334C49.2017 29.8343 48.4332 30.9124 47.187 32.1633C46.081 33.2675 45.4008 33.7857 43.2615 35.1202C41.953 35.9367 41.4649 36.2716 40.8626 36.7636C39.3619 37.9778 38.3598 39.4379 37.6536 41.4319L37.4251 42.0809L37.4199 28.8818L37.7211 28.5102C38.1105 28.0235 38.3286 27.6571 38.5104 27.1599C38.6661 26.7517 38.9361 26.2964 39.4086 25.6631L39.6683 25.3177L41.4389 25.2968C43.059 25.2758 43.2459 25.2654 43.6198 25.1607C44.5441 24.9042 45.3333 24.2919 46.5224 22.9207C46.8132 22.5805 46.9482 22.3921 46.9066 22.3712C46.8236 22.3241 45.8422 22.1304 45.3645 22.0676C42.6072 21.7065 40.5718 22.4183 39.7877 24.0145C39.6475 24.3024 39.5437 24.4385 39.3411 24.5902C38.9206 24.9042 38.1573 25.8777 37.6068 26.804L37.4303 27.0919L37.394 25.6369C37.3213 22.9207 37.4667 21.2826 37.9132 19.9376C38.1105 19.3252 38.5571 18.4355 38.9361 17.9017C39.3464 17.3103 40.2239 16.4154 40.7691 16.0333C41.5272 15.4942 42.3372 14.6987 43.1161 13.7305C43.3238 13.4741 43.4432 13.3694 43.5627 13.3485C43.6561 13.3275 43.9625 13.2333 44.2481 13.1339C45.1048 12.846 45.6449 12.5059 46.1174 11.9511C46.7716 11.1818 46.9897 10.4438 47.1559 8.44459C47.1974 7.90553 47.2597 7.34554 47.2857 7.19376C47.3169 7.04199 47.3272 6.91116 47.3169 6.89546C47.3013 6.88498 47.1559 6.96873 46.9897 7.08386L46.9774 7.09203C46.7986 7.21026 46.2824 7.5517 45.8058 7.8532C43.9988 9.00458 43.3394 9.62215 42.8513 10.6165C42.5138 11.3021 42.3788 11.815 42.2905 12.6943L42.2282 13.3328L41.9114 13.5735C40.2343 14.861 38.3442 16.9282 37.0772 18.8647L36.8228 19.252L36.7968 8.03637L37.0045 7.76947C37.4407 7.21471 37.8042 6.36686 37.9392 5.59752C38.043 5.01137 37.9807 3.88613 37.8146 3.2738Z" fill="white"/>
<path d="M29.87 16.9806C29.0237 16.2322 28.2915 15.824 27.4867 15.6565C27.144 15.5832 26.391 15.5518 26.1522 15.5989C26.1314 15.6042 26.0674 15.616 25.9819 15.6305C25.897 15.6448 25.7909 15.6618 25.6849 15.6774C25.472 15.7141 24.8177 15.8554 24.2309 15.9914C23.6442 16.1327 23.0159 16.2741 22.829 16.3107C22.642 16.3421 22.4603 16.3892 22.424 16.4101C22.3357 16.452 23.1354 17.2213 23.7636 17.6976C24.3192 18.1215 25.2279 18.5821 25.7576 18.7129C26.2612 18.8385 27.0245 18.849 27.5646 18.7391C27.7722 18.692 28.2759 18.5507 28.6758 18.4251C29.8856 18.0378 30.2543 17.9645 30.9293 17.9645C31.4849 17.9697 31.9522 18.0482 32.4091 18.221C32.5026 18.2523 32.4974 18.2419 32.3884 18.1215C32.0042 17.6924 31.2201 17.3522 30.6333 17.3522H30.2958L29.87 16.9806Z" fill="white"/>
<path d="M48.6877 16.049C47.9296 15.8763 47.1819 15.7088 47.0261 15.6774C46.538 15.5727 45.541 15.5623 45.1308 15.6565C44.3312 15.8344 43.6198 16.2322 42.8098 16.9492L42.358 17.3522H42.0205C41.5895 17.3522 41.091 17.5092 40.712 17.7656C40.3641 18.0011 40.0733 18.2838 40.2499 18.221C40.6912 18.0535 41.1793 17.9697 41.7037 17.9645C42.3684 17.9645 42.7526 18.0378 43.8119 18.378C44.8764 18.7181 45.3541 18.8176 45.9668 18.8176C47.0988 18.8176 48.1321 18.357 49.4042 17.2789C49.6535 17.0643 49.9598 16.7817 50.0845 16.6509C50.3077 16.4206 50.3077 16.4154 50.1883 16.3892C50.1208 16.3787 49.4458 16.227 48.6877 16.049Z" fill="white"/>
<path d="M32.783 30.2373C31.9989 29.0283 31.2045 28.5259 29.8648 28.3951C29.5533 28.3689 29.2729 28.348 29.2417 28.3532C29.2158 28.3584 29.086 28.3689 28.9562 28.3793C28.8263 28.3898 28.3746 28.4474 27.9436 28.505C27.4036 28.5835 27.0557 28.6044 26.8116 28.5782L26.4534 28.5468L26.5988 28.798C27.2426 29.9285 28.224 31.0485 28.9406 31.4776C29.6883 31.9225 30.5035 32.1214 31.5784 32.1266C32.2534 32.1266 32.6324 32.0847 33.2763 31.9487C33.5204 31.8963 33.5308 31.8859 33.4996 31.7498C33.4269 31.462 33.0322 30.6141 32.783 30.2373Z" fill="white"/>
<path d="M45.8474 28.5782C45.6085 28.6044 45.245 28.5835 44.7154 28.5102C43.8482 28.3898 43.2771 28.348 42.924 28.3793C41.5012 28.4945 40.6808 28.9917 39.876 30.2373C39.6268 30.6141 39.2321 31.462 39.1594 31.7498C39.1283 31.8859 39.1387 31.8963 39.3827 31.9487C40.9664 32.2888 42.5709 32.1423 43.5834 31.5562C44.409 31.0747 45.2606 30.1483 45.9564 28.9551L46.1952 28.5468L45.8474 28.5782Z" fill="white"/>
<path d="M2.60417 50.2296C2.4328 50.0412 2.28224 49.9313 2.07972 49.858C1.7422 49.7272 1.20741 49.7167 0.885435 49.8319C0.605071 49.9313 0.267545 50.2296 0.122152 50.5018C-0.0336229 50.8001 -0.0440054 51.5589 0.11177 51.8677C0.361025 52.3754 0.854288 52.6528 1.51896 52.6475C1.97069 52.6475 2.39127 52.4591 2.64053 52.1503L2.80148 51.9462H12.2466L12.9892 51.3025L13.7317 50.664L8.28476 50.6483C3.67901 50.6378 2.83784 50.6274 2.83784 50.5646C2.83784 50.5227 2.73397 50.3709 2.60417 50.2296Z" fill="white"/>
<path d="M72.5991 50.6849C72.4797 50.3238 72.1214 49.9575 71.7684 49.8371C71.4724 49.7324 70.9116 49.7272 70.6468 49.8214C70.3196 49.9365 70.0704 50.1249 69.9146 50.3709L69.764 50.6117L58.9169 50.664L59.6594 51.3025L60.3968 51.941L65.1168 51.9462H69.8368L70.0133 52.1503C70.1067 52.2655 70.3196 52.4225 70.4858 52.5062C71.0518 52.7836 71.8774 52.658 72.2824 52.2288C72.6459 51.8415 72.7705 51.2188 72.5991 50.6849Z" fill="white"/>
<path d="M36.8124 55.8505C36.7449 55.6725 36.6099 55.4213 36.5216 55.2853C36.4282 55.1492 36.3451 55.0393 36.3295 55.0393C36.2724 55.0393 36.018 55.4632 35.8726 55.8034C35.5922 56.4419 35.5402 56.7768 35.5039 58.2004L35.4676 59.5088L35.2754 60.0792C35.1664 60.3932 34.8496 61.1417 34.5641 61.7383C33.9773 62.9734 33.7592 63.5072 33.6709 63.9469C33.619 64.1928 33.5619 64.2975 33.3905 64.4754C33.1101 64.7528 33.0271 65.0407 33.105 65.4437C33.214 65.9827 33.5983 66.2863 34.1798 66.2863C34.7042 66.281 35.0937 66.0194 35.2391 65.5745C35.3326 65.2971 35.2754 64.8523 35.1144 64.6115C34.9743 64.3917 34.5329 64.1405 34.294 64.1405C34.159 64.1405 34.1539 64.13 34.185 63.9678C34.2317 63.6956 34.5692 62.8792 35.0522 61.843C35.3014 61.3144 35.535 60.7596 35.5714 60.6131L35.6389 60.3462L35.7168 60.5293C35.7398 60.5845 35.7949 60.7235 35.8633 60.8963C35.9181 61.0348 35.9815 61.195 36.0439 61.351C36.1841 61.7069 36.3087 61.9947 36.3295 61.9947C36.3503 61.9947 36.4749 61.7069 36.6151 61.351C36.7553 61.0003 36.9007 60.6288 36.9422 60.5293L37.0201 60.3462L37.0876 60.6131C37.124 60.7596 37.3576 61.3144 37.6068 61.843C38.0898 62.8792 38.4273 63.6956 38.474 63.9678C38.5052 64.13 38.5 64.1405 38.365 64.1405C38.1261 64.1405 37.6847 64.3917 37.5446 64.6115C37.3836 64.8523 37.3264 65.2971 37.4199 65.5745C37.5653 66.0194 37.9548 66.281 38.4792 66.2863C39.0608 66.2863 39.445 65.9827 39.554 65.4437C39.6319 65.0407 39.5489 64.7528 39.2685 64.4754C39.0971 64.2975 39.04 64.1928 38.9881 63.9469C38.8998 63.5072 38.6817 62.9734 38.0949 61.7383C37.8094 61.1417 37.4926 60.3932 37.3836 60.0792L37.1915 59.5088L37.1551 58.2004C37.1188 56.8082 37.072 56.468 36.8124 55.8505Z" fill="white"/>
<path d="M41.1222 66.3648C41.1222 66.4799 41.1326 66.5218 41.1429 66.4537C41.1534 66.391 41.1534 66.2967 41.1429 66.2444C41.1274 66.1973 41.117 66.2496 41.1222 66.3648Z" fill="white"/>
<path d="M31.5161 66.4433C31.5161 66.5741 31.5264 66.6265 31.5368 66.5584C31.5472 66.4956 31.5472 66.391 31.5368 66.3229C31.5264 66.2601 31.5161 66.3124 31.5161 66.4433Z" fill="white"/>
<path d="M41.0729 66.9199C41.0774 66.9294 41.0836 66.9234 41.091 66.8986C41.1014 66.8515 41.1014 66.7782 41.091 66.7416C41.0755 66.7102 41.0651 66.7468 41.0651 66.8358C41.0651 66.8798 41.0679 66.9093 41.0729 66.9199Z" fill="white"/>
<path d="M31.5628 66.8881C31.5628 66.9719 31.5732 67.0033 31.5887 66.9509C31.5991 66.9038 31.5991 66.8306 31.5887 66.7939C31.5732 66.7625 31.5628 66.7992 31.5628 66.8881Z" fill="white"/>
</svg>
