<svg width="651" height="376" fill="none" xmlns="http://www.w3.org/2000/svg"><rect width="177.992" height="237.595" rx="20" transform="scale(1.22477 .70706) rotate(-45 498.141 38.325)" fill="#7C697A"/><rect width="177.992" height="237.595" rx="20" transform="scale(1.22477 .70706) rotate(-45 356.441 -20.367)" fill="#C3B8BC"/><rect width="177.992" height="237.595" rx="20" transform="scale(1.22477 .70706) rotate(-45 211.328 -80.475)" fill="#FCF4F0"/><mask id="a" style="mask-type:alpha" maskUnits="userSpaceOnUse" x="155" y="5" width="341" height="197"><rect width="177.992" height="237.595" rx="20" transform="scale(1.22477 .70706) rotate(-45 211.328 -80.475)" fill="#FCF4F0"/></mask><g mask="url(#a)"><path d="M367.535 39.19l-129.84-1.788-81.231 56.284 211.071-54.497z" fill="#F2DBD0"/><path d="M431.174 76.744L155.756 93.276 366.12 39.188l65.054 37.556z" fill="#FEEAE0"/><path d="M203.486 91.848l157.685 110.626 135.057-77.969-292.742-32.657z" fill="#FEEFE8"/><path d="M370.168 109.515l-50.008 63.977 176.069-50.211-126.061-13.766z" fill="#FFF7F3"/></g><g clip-path="url(#clip0_2092_16163)"><rect width="114.835" height="105.396" rx="7.865" transform="matrix(.86603 -.5 .86603 .5 224.377 98.688)" fill="#452E47"/><circle cx="9.438" cy="9.438" r="9.058" transform="matrix(.86603 -.5 .86603 .5 277.508 81.384)" fill="#6B466F" stroke="#F2DBD0" stroke-width=".76"/><path d="M326.904 85.113c.738.426 1.127 1.043 1.152 1.826.026.786-.317 1.722-1.012 2.75-1.389 2.058-4.152 4.44-7.974 6.646-3.821 2.206-7.946 3.801-11.509 4.603-1.782.401-3.403.599-4.764.585-1.357-.015-2.425-.24-3.163-.666-.738-.426-1.127-1.042-1.152-1.826-.026-.785.317-1.721 1.012-2.75 1.389-2.058 4.152-4.439 7.974-6.645 3.821-2.206 7.946-3.802 11.509-4.604 1.782-.401 3.403-.599 4.764-.584 1.357.014 2.425.24 3.163.665z" fill="#6B466F" stroke="#F2DBD0" stroke-width=".76"/><rect x=".658" width="86.546" height="10.252" rx="5.126" transform="matrix(.86603 -.5 .86603 .5 289.857 123.399)" fill="#6B466F" stroke="#F2DBD0" stroke-width=".76"/><rect x=".658" width="86.546" height="10.252" rx="5.126" transform="matrix(.86603 -.5 .86603 .5 304.843 132.052)" fill="#6B466F" stroke="#F2DBD0" stroke-width=".76"/></g><defs><clipPath id="clip0_2092_16163"><path fill="#fff" transform="matrix(.86603 -.5 .86603 .5 191 93.575)" d="M0 0h143.15v143.15H0z"/></clipPath></defs></svg>