<svg width="651" height="376" fill="none" xmlns="http://www.w3.org/2000/svg"><rect width="177.992" height="237.595" rx="20" transform="scale(1.22477 .70706) rotate(-45 498.14 38.324)" fill="#7C697A"/><rect width="177.992" height="237.595" rx="20" transform="scale(1.22477 .70706) rotate(-45 356.44 -20.368)" fill="#C3B8BC"/><rect width="177.992" height="237.595" rx="20" transform="scale(1.22477 .70706) rotate(-45 211.326 -80.476)" fill="#FCF4F0"/><mask id="a" style="mask-type:alpha" maskUnits="userSpaceOnUse" x="155" y="5" width="341" height="197"><rect width="177.992" height="237.595" rx="20" transform="scale(1.22477 .70706) rotate(-45 211.326 -80.476)" fill="#FCF4F0"/></mask><g mask="url(#a)"><path d="M367.535 39.188l-129.84-1.787-81.231 56.284 211.071-54.497z" fill="#F2DBD0"/><path d="M431.174 76.743L155.756 93.275 366.12 39.187l65.054 37.556z" fill="#FEEAE0"/><path d="M203.486 91.847l157.685 110.626 135.057-77.969-292.742-32.657z" fill="#FEEFE8"/><path d="M370.168 109.514l-50.008 63.977 176.069-50.211-126.061-13.766z" fill="#FFF7F3"/></g><g clip-path="url(#clip0_2092_15447)"><circle cx="57.407" cy="57.407" r="57.407" transform="matrix(.86603 -.5 .86603 .5 215.936 97.2)" fill="#452E47"/><circle cx="14.907" cy="14.907" r="14.527" transform="matrix(.86603 -.5 .86603 .5 276.914 89.904)" fill="#6B466F" stroke="#F2DBD0" stroke-width=".76"/><path d="M352.119 94.376c1.142.66 1.725 1.61 1.752 2.798.027 1.19-.506 2.6-1.56 4.144-2.109 3.087-6.272 6.655-12.003 9.964-5.73 3.308-11.911 5.712-17.257 6.929-2.674.609-5.117.917-7.178.901-2.058-.016-3.704-.352-4.846-1.011-1.141-.659-1.724-1.61-1.751-2.798-.027-1.19.505-2.6 1.56-4.144 2.109-3.086 6.272-6.655 12.002-9.964 5.731-3.308 11.912-5.712 17.258-6.93 2.673-.608 5.117-.915 7.178-.9 2.058.016 3.704.352 4.845 1.011z" fill="#6B466F" stroke="#F2DBD0" stroke-width=".76"/></g><defs><clipPath id="clip0_2092_15447"><path fill="#fff" transform="matrix(.86603 -.5 .86603 .5 205.499 97.517)" d="M0 0h126.866v126.866H0z"/></clipPath></defs></svg>