<svg width="651" height="376" fill="none" xmlns="http://www.w3.org/2000/svg"><rect width="177.992" height="237.595" rx="20" transform="scale(1.22477 .70706) rotate(-45 498.141 38.325)" fill="#7C697A"/><rect width="177.992" height="237.595" rx="20" transform="scale(1.22477 .70706) rotate(-45 356.441 -20.367)" fill="#C3B8BC"/><rect width="177.992" height="237.595" rx="20" transform="scale(1.22477 .70706) rotate(-45 211.328 -80.475)" fill="#FCF4F0"/><mask id="a" style="mask-type:alpha" maskUnits="userSpaceOnUse" x="155" y="5" width="341" height="197"><rect width="177.992" height="237.595" rx="20" transform="scale(1.22477 .70706) rotate(-45 211.328 -80.475)" fill="#FCF4F0"/></mask><g mask="url(#a)"><path d="M367.535 39.19l-129.84-1.788-81.231 56.284 211.071-54.497z" fill="#F2DBD0"/><path d="M431.174 76.744L155.756 93.276 366.12 39.188l65.054 37.556z" fill="#FEEAE0"/><path d="M203.486 91.848l157.685 110.626 135.058-77.969-292.743-32.657z" fill="#FEEFE8"/><path d="M370.168 109.515l-50.008 63.977 176.069-50.211-126.061-13.766z" fill="#FFF7F3"/></g><g filter="url(#filter0_d_2092_17036)" stroke-width=".764" stroke-miterlimit="10" clip-path="url(#clip0_2092_17036)"><path d="M329.407 51.676c-23.846 11.77-66.564 15.683-66.564 15.683s-6.782 24.664-27.172 38.43c0 0 77.147 55.211 153.307 34.388 36.065-43.964-59.566-88.504-59.566-88.504l-.005.003z" fill="#452E47" stroke="#fff"/><path d="M330.012 99.863c1.393-2.98.075-6.297-3.98-8.638-6.037-3.485-15.821-3.485-21.858 0-6.037 3.485-6.037 9.133 0 12.619 3.736 2.157 8.909 2.974 13.737 2.462l14.974 13.003c1.97 1.711 6.166 1.951 8.682.499l11.94-6.893c2.575-1.487 2.068-3.975-1.037-5.075l-22.464-7.98.006.003z" fill="#6B466F" stroke="#F2DBD0"/></g><defs><clipPath id="clip0_2092_17036"><path fill="#fff" transform="scale(1.22477 .70706) rotate(-45 249.378 -144.73)" d="M0 0h110.167v146.362H0z"/></clipPath><filter id="filter0_d_2092_17036" x="221.317" y="37.564" width="190.004" height="121.323" filterUnits="userSpaceOnUse" color-interpolation-filters="sRGB"><feFlood flood-opacity="0" result="BackgroundImageFix"/><feColorMatrix in="SourceAlpha" values="0 0 0 0 0 0 0 0 0 0 0 0 0 0 0 0 0 0 127 0" result="hardAlpha"/><feOffset/><feGaussianBlur stdDeviation="6.873"/><feColorMatrix values="0 0 0 0 0.682353 0 0 0 0 0.992157 0 0 0 0 1 0 0 0 0.54 0"/><feBlend in2="BackgroundImageFix" result="effect1_dropShadow_2092_17036"/><feBlend in="SourceGraphic" in2="effect1_dropShadow_2092_17036" result="shape"/></filter></defs></svg>