<svg width="651" height="376" fill="none" xmlns="http://www.w3.org/2000/svg"><rect width="177.992" height="237.595" rx="20" transform="scale(1.22477 .70706) rotate(-45 498.141 38.325)" fill="#7C697A"/><rect width="177.992" height="237.595" rx="20" transform="scale(1.22477 .70706) rotate(-45 356.441 -20.367)" fill="#C3B8BC"/><rect width="177.992" height="237.595" rx="20" transform="scale(1.22477 .70706) rotate(-45 211.326 -80.476)" fill="#FCF4F0"/><mask id="a" style="mask-type:alpha" maskUnits="userSpaceOnUse" x="155" y="5" width="341" height="197"><rect width="177.992" height="237.595" rx="20" transform="scale(1.22477 .70706) rotate(-45 211.326 -80.476)" fill="#FCF4F0"/></mask><g mask="url(#a)"><path d="M367.535 39.188l-129.84-1.787-81.231 56.284 211.071-54.497z" fill="#F2DBD0"/><path d="M431.174 76.743L155.756 93.275 366.12 39.187l65.054 37.556z" fill="#FEEAE0"/><path d="M203.486 91.847l157.685 110.626 135.057-77.969-292.742-32.657z" fill="#FEEFE8"/><path d="M370.168 109.514l-50.008 63.977 176.069-50.211-126.061-13.766z" fill="#FFF7F3"/></g><g clip-path="url(#clip0_2092_16879)"><rect width="131.401" height="80.3" rx="9.733" transform="matrix(.86603 -.5 .86603 .5 235.634 114.531)" fill="#452E47"/><path transform="matrix(.86603 -.5 .86603 .5 252.581 124.594)" fill="#6B466F" stroke="#F2DBD0" stroke-width=".76" d="M.658 0h130.641v13.84H.658z"/><rect x=".658" width="33.307" height="13.84" rx="6.92" transform="matrix(.86603 -.5 .86603 .5 290.513 137.977)" fill="#6B466F" stroke="#F2DBD0" stroke-width=".76"/></g><defs><clipPath id="clip0_2092_16879"><path fill="#fff" transform="matrix(.86603 -.5 .86603 .5 201.185 96.095)" d="M0 0h134.876v157.681H0z"/></clipPath></defs></svg>