<svg width="249" height="90" fill="none" xmlns="http://www.w3.org/2000/svg"><path d="M46.815 13.274c-.182-.654-.566-1.455-1.05-2.188-.212-.32-.41-.586-.435-.586-.073 0-.764 1.068-1.008 1.565-.457.916-.654 1.716-.654 2.643 0 1.172.343 2.24.986 3.062l.208.261v5.616c-.005 4.427-.015 5.595-.067 5.527a30.447 30.447 0 01-.488-.707c-.899-1.308-2.166-2.78-3.256-3.779-.556-.513-1.376-1.193-1.563-1.298-.042-.026-.088-.261-.125-.66-.15-1.564-.586-2.527-1.552-3.448-.442-.419-.717-.618-2.14-1.544l-1.09-.712-.16-.104-.136-.09.068.325c.036.183.103.775.15 1.324.104 1.277.161 1.623.343 2.198.43 1.372 1.417 2.209 3.063 2.622.333.079.359.1.623.43.774.973 1.574 1.753 2.41 2.339.498.35 1.386 1.261 1.78 1.832a8.792 8.792 0 011.024 2.036c.446 1.345.592 2.983.52 5.699l-.037 1.455-.177-.288c-.55-.926-1.314-1.9-1.734-2.214-.203-.152-.306-.288-.457-.591-.338-.696-1.023-1.293-1.88-1.638-.94-.377-2.357-.487-3.712-.293-.556.083-1.501.267-1.543.303-.051.042.66.874 1.241 1.46.733.733 1.304 1.1 2.052 1.325.347.11.514.12 2.175.136l1.797.026.26.345c.472.633.742 1.089.898 1.497.181.497.4.864.794 1.35l.296.372-.005 13.199-.229-.654c-.3-.848-.924-2.094-1.36-2.722-.457-.643-1.5-1.7-2.222-2.24-.312-.235-1.2-.821-1.974-1.303-2.15-1.35-2.824-1.853-3.889-2.894-1.656-1.617-2.804-3.454-3.92-6.254l-.29-.733-.032-1.387c-.031-1.434-.073-1.769-.306-2.465-.26-.774-.748-1.491-1.506-2.208-.473-.445-1.553-1.314-1.594-1.277-.047.052-.172 1.554-.172 2.145 0 2.497.712 4.062 2.28 4.983l.332.193 1.054 2.178c.587 1.193 1.054 2.177 1.044 2.187-.005.01-.54-.303-1.179-.696-2.347-1.434-4.761-2.768-5.384-2.988-.094-.032-.172-.084-.172-.115 0-.032-.093-.304-.202-.608-.436-1.167-1.075-1.967-1.875-2.37-.805-.398-1.703-.555-3.463-.618-.696-.02-.95-.016-.95.026 0 .131.436.979.737 1.434.369.555 1.111 1.335 1.6 1.675.97.686 2.185 1.068 3.27 1.026l.442-.016.53.408c1.033.79 2.134 1.471 3.027 1.869 1.189.534 2.643 1.575 4.154 2.978l.337.314-3.635-.026c-1.999-.016-3.712-.037-3.806-.048-.13-.015-.275-.12-.576-.408-1.433-1.376-2.928-1.732-5.021-1.183-.987.257-2.565.827-2.565.932 0 .141.592.565 1.22.869 1.438.712 3.074 1.125 4.414 1.125.69 0 1.033-.073 1.412-.288l.25-.146 1.609-.027c2.747-.041 4.819.189 6.636.749 1.36.413 2.575 1.068 3.199 1.716l.17.184-.456.031c-2.882.21-3.874.858-5.016 3.266a171.21 171.21 0 01-.826 1.732c-.254.529-.462.968-.462.979 0 .063 1.48-.267 1.947-.435.888-.319 1.641-.842 2.088-1.444.327-.445.587-1.031.846-1.895.312-1.052.4-1.172.976-1.282.468-.094 1.595-.042 2.103.1 1.844.507 3.614 2.01 4.575 3.878.535 1.046.758 1.9.758 2.9 0 .993-.213 1.7-.748 2.5-.358.545-.633.77-1.116.922-.27.084-.846.089-9.04.073-9.783-.016-11.553.016-15.292.283a141.03 141.03 0 00-4.232.377l-.338.041.442.037c.244.016 6.179.115 13.189.22s12.908.204 13.1.225l.359.037-.53.33c-1.002.633-1.999 1.083-2.674 1.219-.208.041-7.534.199-9.455.204-.337 0-.437 0-.479.05a.229.229 0 00-.036.091c-.254 1.042-4.21 3.648-11.008 7.264-.685.361-1.189.644-1.116.623.073-.02.654-.256 1.298-.529 4.71-1.993 8.796-4.233 11.205-6.138l.535-.42h4.632c3.162 0 4.73-.015 4.938-.051.623-.12 1.61-.54 2.124-.9.306-.22.171-.037-.338.46a8.766 8.766 0 01-.867.743c-.115.077-.2.138-.293.188-.394.21-.902.204-4.198.226l-3.625.026-1.282.853c-1.662 1.104-2.71 1.737-3.552 2.14-1.007.482-1.916 1.199-3.92 3.078l-.95.895-.426.005c-.359.005-.478.031-.722.152-.56.277-.924.868-.924 1.502 0 .92.711 1.633 1.63 1.643.322 0 .426-.021.722-.167.633-.315.95-.864.909-1.581-.026-.445-.14-.717-.442-1.052-.16-.178-.176-.22-.114-.277.234-.22 3.225-2.58 3.469-2.738.16-.104 1.157-.696 2.212-1.313 2.29-1.34 3.11-1.848 3.536-2.198l.316-.262.691-.057c.737-.063 2.544-.079 2.742-.027.098.032-.026.115-.701.477-3.806 2.046-7.083 4.26-9.497 6.416-.696.623-1.158 1.083-1.08 1.083.077 0 1.22-.591 1.718-.895.79-.476 1.864-1.198 3.682-2.465 3.416-2.381 5.312-3.585 6.682-4.234.338-.157.343-.157.613-.078 1.137.34 2.918-.309 4.876-1.79 1.06-.8 2.248-2.12 2.492-2.753.089-.24.115-.12.052.236-.254 1.413-1.937 3.213-3.956 4.239-1.003.508-1.678.701-2.778.8-.696.063-.764.084-1.195.288-1.957.948-6.09 4.747-10.94 10.054-.514.56-1.039 1.136-1.169 1.277-.13.141-.202.236-.16.21.041-.022.7-.592 1.469-1.267 5.935-5.213 10.66-9.148 11.517-9.588.104-.052.498-.173.883-.262 2.824-.649 4.917-1.706 5.981-3.025.65-.8.961-1.58 1.055-2.643l.036-.403h.571l-.036.895c-.063 1.466-.276 2.073-.992 2.8-.815.832-1.75 1.335-3.78 2.041-1.137.393-1.88.733-2.742 1.256-1.719 1.042-3.297 2.35-5.317 4.386-1.236 1.246-2.191 2.334-2.965 3.355l-.441.591-.426.021c-.753.042-1.319.419-1.548 1.037-.15.408-.124 1.12.058 1.48.415.822 1.516 1.136 2.435.702.301-.141.576-.424.737-.748.11-.22.125-.33.125-.78 0-.466-.016-.555-.14-.79-.13-.247-.426-.571-.644-.691-.012-.007-.023-.012-.028-.02-.041-.066.236-.335 3.019-3.047 2.96-2.895 5.15-4.695 6.511-5.365.234-.115.83-.34 1.33-.507a13.47 13.47 0 001.593-.65l.68-.345-.316.361c-1.179 1.314-1.947 2.502-2.274 3.496-.099.304-.125.487-.12.859.005.256.016.507.026.55.016.052-.602.742-1.61 1.805-.893.952-1.666 1.785-1.708 1.853-.067.104-.083.371-.083 1.753-.005 1.114.016 1.784.068 2.125.067.491.233 1.135.316 1.219.021.026.052-.785.068-1.806.026-1.671.034-2.386.31-2.973.21-.446.573-.819 1.216-1.48.925-.953 1.522-1.617 1.958-2.198.135-.178.156-.257.192-.76.083-1.051.265-1.606.753-2.26.14-.189 1.002-1.094 1.921-2.015 1.652-1.66 1.922-1.973 2.254-2.638.322-.649.52-1.774.52-2.973v-.539h.84l-.026 1.324c-.02 1.44-.046 1.57-.353 2.125a7.283 7.283 0 01-.405.607c-.374.492-1.578 1.77-2.046 2.172-.602.513-.7.623-.84.89-.281.555-.385 1.01-.67 3.035-.312 2.188-.572 2.937-1.257 3.664-.291.314-.914 1.22-1.35 1.963-.218.382-.38.602-.431.602-.172 0-.525.282-.629.502-.207.43-.062 1.015.312 1.266.099.069.197.173.218.236.031.1.15 1.444.29 3.23l.042.496.037-.916c.041-1 .104-1.779.197-2.444l.062-.434.229-.11c.54-.262.696-1.031.301-1.502-.073-.089-.13-.168-.13-.188 0-.016.348-.597.769-1.298.965-1.591 1.568-2.643 1.869-3.277l.239-.497.036-1.078c.088-2.418.286-2.983 1.236-3.632.83-.56 1.386-1.094 2.191-2.104.182-.23.374-.476.42-.55.084-.125.09-.099.09.655l.004.785-.493.403c-.644.534-1.163 1.151-1.454 1.743-.29.58-.379.926-.441 1.7-.187 2.22-.25 2.429-1.05 3.622-.903 1.356-1.162 2.319-1.032 3.9l.021.272c.023.284.04.514.04.554.006.058.037-.178.073-.523.14-1.35.364-1.89 1.382-3.376.711-1.031 1.043-1.696 1.298-2.58.088-.304.12-.602.15-1.502.057-1.487.177-1.9.727-2.523.28-.319 1.138-.931 1.299-.931.16 0 1.017.612 1.298.931.55.623.67 1.037.727 2.523.03.9.062 1.198.15 1.502.27.926.54 1.455 1.475 2.852.851 1.272 1.096 1.92 1.21 3.208l.041.42.042-.315c.062-.497.062-1.8-.005-2.172-.146-.795-.385-1.345-.992-2.25-.488-.733-.571-.9-.743-1.45-.13-.408-.171-.733-.296-2.162-.062-.774-.15-1.12-.441-1.7-.29-.592-.81-1.21-1.454-1.743l-.488-.403v-.785c0-.754.005-.78.088-.654.047.073.24.319.42.55.806 1.01 1.361 1.543 2.192 2.103.95.649 1.148 1.214 1.236 3.632l.036 1.083.27.56c.312.65 1.127 2.073 2.005 3.496.332.545.602 1 .602 1.016 0 .016-.068.105-.15.204-.38.434-.23 1.198.29 1.455.12.063.228.136.244.167.062.152.197 1.518.255 2.586l.067 1.177.036-.575c.016-.32.084-1.173.151-1.9l.114-1.33.197-.125c.665-.424.556-1.539-.17-1.753-.177-.058-.235-.116-.447-.487-.385-.675-1.137-1.774-1.465-2.14-.379-.425-.581-.78-.779-1.372-.192-.591-.322-1.25-.53-2.748-.18-1.324-.337-2.014-.56-2.48-.16-.346-.234-.43-.872-.974-.468-.403-1.672-1.68-2.046-2.172a7.26 7.26 0 01-.405-.607c-.307-.555-.333-.685-.353-2.13l-.026-1.319h.84v.534c0 1.214.193 2.324.52 2.978.333.66.608.984 2.186 2.57.878.884 1.735 1.784 1.906 2.004.555.691.753 1.256.82 2.33.031.48.052.57.172.732.384.518 1.017 1.23 1.957 2.198 1.106 1.14 1.236 1.324 1.392 1.963.12.481.187 1.523.192 3.03l.005 1.366.099-.225c.25-.544.384-2.041.332-3.632-.02-.566-.052-1.1-.073-1.188-.02-.11-.503-.66-1.692-1.921-1.044-1.11-1.657-1.795-1.641-1.847.067-.288.02-1-.094-1.361-.29-.953-1.152-2.319-2.134-3.381-.524-.576-.53-.586-.176-.377.472.283 1.064.529 2.061.869.499.167 1.08.392 1.288.502 1.21.613 3.043 2.073 5.317 4.229 1.044.99 4.2 4.077 4.221 4.124.01.02-.025.052-.077.068-.166.052-.546.466-.655.712-.166.371-.181 1.041-.03 1.44.243.653.84 1.03 1.63 1.03 1.059 0 1.74-.665 1.74-1.706 0-.492-.11-.806-.395-1.125-.333-.372-.701-.545-1.252-.57l-.436-.027-.374-.502c-1.625-2.183-4.32-4.894-6.527-6.569-1.708-1.297-2.814-1.91-4.497-2.49-2.03-.697-3.032-1.241-3.837-2.063-.722-.738-.94-1.35-.992-2.81l-.036-.885h.566l.062.55c.182 1.643 1.065 2.91 2.737 3.925 1.059.644 2.648 1.235 4.356 1.623.343.073.706.183.816.235.815.424 5.69 4.485 11.594 9.672.764.675 1.387 1.198 1.376 1.172-.067-.183-4.055-4.412-5.685-6.03-3.105-3.076-5.219-4.84-6.595-5.505-.41-.199-.488-.22-1.179-.282-.836-.074-1.402-.205-2.087-.477-1.158-.46-2.243-1.193-3.193-2.161-.82-.832-1.335-1.69-1.45-2.408-.056-.366-.04-.465.048-.235.213.565 1.142 1.654 2.05 2.407 2.01 1.665 4.092 2.507 5.307 2.146.25-.073.28-.073.514.032.364.151 1.49.78 2.332 1.292 1.08.66 2.165 1.387 4.206 2.81 1.968 1.372 3.183 2.188 3.972 2.665.56.34 1.657.89 1.693.853.036-.037-1.039-1.042-1.823-1.696-2.295-1.931-5.592-4.103-8.837-5.825-.54-.288-.717-.403-.65-.43.146-.057 2.01-.046 2.763.017.68.057.706.068.888.23.39.35 1.205.863 3.62 2.271 2.362 1.382 2.419 1.418 4.127 2.79l1.37 1.101.25.202c.026.031-.026.125-.14.246-.109.104-.254.33-.332.502-.12.267-.135.35-.114.733.015.345.051.476.17.701a1.626 1.626 0 002.182.696c1.236-.612 1.204-2.376-.052-2.988-.203-.1-.348-.131-.686-.136l-.43-.005-.92-.864c-1.988-1.868-2.944-2.622-3.94-3.103-.993-.482-2.888-1.644-4.357-2.67l-.468-.33-3.634-.026c-3.288-.02-3.795-.014-4.193-.222-.094-.049-.182-.11-.299-.186-.332-.214-1.62-1.455-1.324-1.271.576.355.888.518 1.298.675.166.064.294.116.425.159.584.188 1.229.18 5.427.18h4.663l.374.304c.955.78 2.347 1.706 3.962 2.638 1.251.722 4.195 2.209 5.815 2.93 1.241.556 3.038 1.31 3.038 1.278 0-.01-.628-.35-1.397-.754-4.933-2.6-8.412-4.736-10.073-6.191-.416-.361-.836-.884-.836-1.047 0-.089-.047-.1-.478-.1-1.963-.004-9.264-.162-9.482-.203-.664-.131-1.677-.592-2.674-1.22l-.519-.33.358-.036c.198-.021 6.096-.12 13.106-.225 7.01-.105 12.945-.204 13.19-.22l.44-.037-.337-.041c-.587-.074-3.1-.299-4.232-.377-3.645-.267-5.556-.299-15.292-.283-8.194.016-8.77.01-9.04-.073-.483-.152-.758-.377-1.116-.921-.535-.801-.748-1.508-.748-2.502 0-.68.099-1.256.322-1.894.815-2.33 2.814-4.282 5-4.878.53-.147 1.6-.2 2.108-.105.566.1.686.257.982 1.298.3 1.052.581 1.612 1.049 2.13.493.544 1.152.942 2.082 1.256.478.162 1.693.414 1.745.367.01-.01-.047-.131-.125-.262a51.429 51.429 0 01-.774-1.612c-.83-1.8-1.033-2.146-1.615-2.737-.363-.367-.56-.524-.882-.686-.758-.387-1.579-.58-2.903-.675l-.457-.031.223-.236c.307-.314 1.117-.853 1.672-1.11 2.01-.941 4.596-1.355 8.116-1.303 1.511.021 1.625.032 1.766.131.337.23.592.293 1.324.32 1.381.041 3.074-.367 4.59-1.115.68-.335 1.277-.78 1.205-.9-.021-.032-.135-.095-.26-.137l-.427-.154-.388-.139c-1.667-.607-2.866-.827-3.78-.69-1.023.151-1.864.58-2.695 1.381-.353.34-.457.414-.623.435-.11.01-1.823.026-3.806.041l-3.61.027.364-.346c.909-.853 2.181-1.852 2.975-2.34a13.08 13.08 0 011.101-.58c1.028-.476 1.87-.995 3.007-1.847l.597-.45.467.015c1.849.047 3.692-.984 4.824-2.7.29-.435.763-1.335.763-1.45 0-.1-2.154.016-3.006.157-1.776.298-2.768 1.204-3.401 3.103-.083.246-.156.367-.244.409-.068.036-.395.193-.722.35-.846.408-2.524 1.356-4.325 2.45-.852.518-1.558.931-1.569.92-.01-.01.478-1.004 1.086-2.213l1.095-2.198.338-.183c.467-.252 1.22-1.01 1.485-1.492.608-1.11.846-2.627.696-4.449a20.078 20.078 0 00-.094-.983l-.036-.205-.535.403c-.66.503-1.485 1.288-1.828 1.743a5.569 5.569 0 00-.862 1.816c-.155.623-.233 1.68-.192 2.59.031.613.026.634-.14 1.084a24.56 24.56 0 01-1.121 2.58c-.857 1.701-1.626 2.78-2.872 4.03-1.106 1.105-1.786 1.623-3.925 2.957-1.309.817-1.797 1.152-2.4 1.644-1.5 1.214-2.502 2.674-3.208 4.668l-.229.649-.005-13.2.301-.37c.39-.488.608-.854.79-1.351.155-.408.425-.864.898-1.497l.26-.345 1.77-.021c1.62-.021 1.807-.032 2.18-.136.925-.257 1.714-.87 2.903-2.24.291-.34.426-.529.385-.55-.083-.047-1.065-.24-1.542-.303-2.758-.361-4.793.35-5.577 1.947-.14.287-.244.423-.447.575-.42.314-1.184 1.288-1.734 2.214l-.177.288-.036-1.455c-.073-2.716.073-4.354.52-5.7a8.792 8.792 0 011.022-2.035c.41-.592 1.288-1.487 1.833-1.869.758-.539 1.568-1.334 2.347-2.303.208-.256.327-.36.447-.381.093-.021.4-.116.685-.215.857-.288 1.397-.628 1.87-1.183.654-.77.872-1.507 1.038-3.506.041-.54.104-1.1.13-1.251.03-.152.041-.283.03-.299-.015-.01-.16.074-.326.189l-.013.008c-.178.118-.695.46-1.171.761-1.807 1.152-2.467 1.77-2.955 2.763-.337.686-.472 1.199-.56 2.078l-.063.639-.317.24c-1.677 1.288-3.567 3.355-4.834 5.292l-.254.387-.026-11.216.208-.267c.436-.554.8-1.402.934-2.171.104-.587.042-1.712-.124-2.324z" fill="#fff"/><path d="M38.87 26.98c-.846-.748-1.578-1.156-2.383-1.323-.343-.074-1.096-.105-1.335-.058a14.974 14.974 0 01-.467.078c-.213.037-.867.178-1.454.314-.587.142-1.215.283-1.402.32a2.098 2.098 0 00-.405.1c-.088.041.711.81 1.34 1.287.555.424 1.464.884 1.994 1.015.503.125 1.267.136 1.807.026.207-.047.71-.188 1.11-.314 1.21-.387 1.58-.46 2.254-.46.556.005 1.023.083 1.48.256.094.031.088.02-.02-.1-.385-.429-1.169-.769-1.756-.769h-.337l-.426-.371zm18.818-.931a146.63 146.63 0 00-1.662-.372c-.488-.104-1.485-.115-1.895-.02-.8.177-1.511.575-2.321 1.292l-.452.403h-.337c-.431 0-.93.157-1.309.414-.348.235-.639.518-.462.455.441-.168.93-.251 1.454-.256.664 0 1.049.073 2.108.413 1.064.34 1.542.44 2.155.44 1.132 0 2.165-.461 3.437-1.54.25-.214.556-.496.68-.627.224-.23.224-.236.104-.262a65.13 65.13 0 01-1.5-.34zM41.783 40.237c-.784-1.209-1.578-1.711-2.918-1.842a9.195 9.195 0 00-.623-.042 5.928 5.928 0 01-.286.026c-.13.01-.581.068-1.012.126-.54.078-.888.1-1.132.073l-.359-.031.146.251c.644 1.13 1.625 2.25 2.342 2.68.747.444 1.563.643 2.637.649a7.04 7.04 0 001.698-.178c.244-.053.255-.063.224-.2-.073-.287-.468-1.135-.717-1.512zm13.064-1.659c-.239.026-.602.005-1.132-.068-.867-.12-1.438-.162-1.791-.13-1.423.114-2.243.612-3.048 1.857-.25.377-.644 1.225-.717 1.513-.03.136-.02.146.224.199 1.583.34 3.188.193 4.2-.393.826-.481 1.678-1.408 2.373-2.6l.24-.41-.349.032zM11.604 60.23a1.25 1.25 0 00-.524-.372c-.338-.13-.873-.141-1.195-.026-.28.1-.617.398-.763.67-.156.298-.166 1.057-.01 1.366.249.507.742.785 1.407.78.452 0 .872-.189 1.121-.498l.162-.204h9.445l.742-.643.743-.639-5.447-.016c-4.606-.01-5.447-.02-5.447-.083 0-.042-.104-.194-.234-.335zm69.996.455c-.12-.361-.479-.727-.832-.848-.296-.105-.856-.11-1.121-.016-.327.116-.577.304-.732.55l-.151.24-10.847.053.742.639.738.638 4.72.005h4.72l.176.204a1.7 1.7 0 00.473.356c.566.278 1.391.152 1.796-.277.364-.387.489-1.01.317-1.544zM45.812 65.85a3.574 3.574 0 00-.29-.565c-.094-.136-.177-.246-.192-.246-.058 0-.312.424-.457.764-.28.639-.333.974-.37 2.397l-.035 1.309-.193.57a20.965 20.965 0 01-.71 1.66c-.588 1.234-.806 1.768-.894 2.208a.894.894 0 01-.28.528c-.28.278-.364.566-.286.969.109.539.493.842 1.075.842.524-.005.914-.267 1.06-.712.093-.277.035-.722-.126-.962-.14-.22-.581-.471-.82-.471-.135 0-.14-.011-.109-.173.047-.272.384-1.089.867-2.125.25-.529.483-1.083.52-1.23l.067-.267.078.183.146.367.18.455c.141.356.266.644.287.644.02 0 .145-.288.285-.644.14-.35.286-.722.327-.822l.078-.183.068.267c.036.147.27.701.519 1.23.483 1.036.82 1.853.867 2.125.031.162.026.172-.109.172-.239 0-.68.252-.82.472-.161.24-.219.685-.125.963.145.444.535.706 1.06.711.58 0 .965-.303 1.074-.842.078-.403-.005-.691-.285-.969a.894.894 0 01-.28-.528c-.09-.44-.307-.974-.894-2.209a20.965 20.965 0 01-.711-1.659l-.193-.57-.036-1.309c-.036-1.392-.083-1.732-.343-2.35zm4.31 10.515c0 .115.01.157.02.089a.698.698 0 000-.21c-.015-.047-.025.006-.02.12zm-9.606.078c0 .131.01.183.02.115a.892.892 0 000-.235c-.01-.063-.02-.01-.02.12zm9.557.477c.004.01.01.003.018-.021a.398.398 0 000-.157c-.016-.032-.026.005-.026.094a.27.27 0 00.008.084zm-9.51-.032c0 .084.01.115.026.063a.398.398 0 000-.157c-.016-.031-.026.005-.026.094zM103.12 51V39.48h1.736l3.984 8.16 3.984-8.16h1.736V51h-1.8v-7.384L109.224 51h-.768l-3.528-7.384V51h-1.808zm15.927 0V39.48h7.441v1.808h-5.513v2.84h4.553v1.808h-4.553v3.256h5.513V51h-7.441zm11.6 0V39.48h1.736l3.984 8.16 3.984-8.16h1.736V51h-1.8v-7.384L136.751 51h-.768l-3.528-7.384V51h-1.808zm20.799.24c-1.152 0-2.138-.25-2.96-.752a5.03 5.03 0 01-1.896-2.112c-.437-.901-.656-1.947-.656-3.136 0-1.19.219-2.235.656-3.136.443-.901 1.075-1.603 1.896-2.104.822-.507 1.808-.76 2.96-.76s2.139.253 2.96.76a4.9 4.9 0 011.896 2.104c.443.901.664 1.947.664 3.136 0 1.19-.221 2.235-.664 3.136a4.952 4.952 0 01-1.896 2.112c-.821.501-1.808.752-2.96.752zm0-1.816c.774.005 1.416-.165 1.928-.512.518-.347.904-.835 1.16-1.464.262-.63.392-1.365.392-2.208 0-.843-.13-1.573-.392-2.192-.256-.624-.642-1.11-1.16-1.456-.512-.347-1.154-.525-1.928-.536-.773-.005-1.416.165-1.928.512s-.898.835-1.16 1.464c-.256.63-.384 1.365-.384 2.208 0 .843.128 1.576.384 2.2.256.619.64 1.101 1.152 1.448.518.347 1.163.525 1.936.536zM160.799 51V39.48h4.76c.112 0 .256.005.432.016.176.005.338.021.488.048.666.101 1.216.323 1.648.664.437.341.76.773.968 1.296.213.517.32 1.093.32 1.728 0 .939-.238 1.747-.712 2.424-.475.672-1.203 1.088-2.184 1.248l-.824.072h-2.968V51h-1.928zm6.616 0l-2.272-4.688 1.96-.432 2.496 5.12h-2.184zm-4.688-5.824h2.752c.106 0 .226-.005.36-.016.133-.01.256-.032.368-.064.32-.08.57-.221.752-.424.186-.203.317-.432.392-.688.08-.256.12-.507.12-.752s-.04-.496-.12-.752a1.719 1.719 0 00-.392-.696c-.182-.203-.432-.344-.752-.424a1.566 1.566 0 00-.368-.056 4.568 4.568 0 00-.36-.016h-2.752v3.888zM176.182 51v-4.72l-3.92-6.8h2.248l2.648 4.592 2.64-4.592h2.248l-3.912 6.8V51h-1.952zm18.896.24c-1.152 0-2.138-.25-2.96-.752a5.03 5.03 0 01-1.896-2.112c-.437-.901-.656-1.947-.656-3.136 0-1.19.219-2.235.656-3.136.443-.901 1.075-1.603 1.896-2.104.822-.507 1.808-.76 2.96-.76 1.328 0 2.435.333 3.32 1 .886.661 1.507 1.555 1.864 2.68l-1.944.536c-.224-.752-.605-1.339-1.144-1.76-.538-.427-1.237-.64-2.096-.64-.773 0-1.418.173-1.936.52-.512.347-.898.835-1.16 1.464-.256.624-.386 1.357-.392 2.2 0 .843.128 1.579.384 2.208.262.624.651 1.11 1.168 1.456.518.347 1.163.52 1.936.52.859 0 1.558-.213 2.096-.64.539-.427.92-1.013 1.144-1.76l1.944.536c-.357 1.125-.978 2.021-1.864 2.688-.885.661-1.992.992-3.32.992zm9.181-.24V39.48h1.928v4.848h5.456V39.48h1.92V51h-1.92v-4.864h-5.456V51h-1.928zm12.987 0l3.632-11.52h2.824L227.334 51h-1.984l-3.296-10.336h.432L219.23 51h-1.984zm2.024-2.496v-1.8h6.048v1.8h-6.048zM231.18 51V39.48h1.928V51h-1.928zm6.564 0V39.48h1.952l5.344 8.12v-8.12h1.952V51h-1.952l-5.344-8.12V51h-1.952z" fill="#fff"/></svg>