<svg width="24" height="24" fill="none" xmlns="http://www.w3.org/2000/svg"><path opacity=".5" d="M3 10c0-3.771 0-5.657 1.172-6.828C5.343 2 7.229 2 11 2h2c3.771 0 5.657 0 6.828 1.172C21 4.343 21 6.229 21 10v4c0 3.771 0 5.657-1.172 6.828C18.657 22 16.771 22 13 22h-2c-3.771 0-5.657 0-6.828-1.172C3 19.657 3 17.771 3 14v-4z" fill="#452E47"/><path fill-rule="evenodd" clip-rule="evenodd" d="M7.25 12a.75.75 0 01.75-.75h8a.75.75 0 010 1.5H8a.75.75 0 01-.75-.75zm0-4A.75.75 0 018 7.25h8a.75.75 0 010 1.5H8A.75.75 0 017.25 8zm0 8a.75.75 0 01.75-.75h5a.75.75 0 010 1.5H8a.75.75 0 01-.75-.75z" fill="#452E47"/></svg>