<svg width="24" height="24" fill="none" xmlns="http://www.w3.org/2000/svg"><path d="M15.5 7.5a3.5 3.5 0 11-7 0 3.5 3.5 0 017 0z" fill="#452E47"/><path opacity=".4" d="M19.5 7.5a2.5 2.5 0 11-5 0 2.5 2.5 0 015 0zm-15 0a2.5 2.5 0 105 0 2.5 2.5 0 00-5 0z" fill="#452E47"/><path d="M18 16.5c0 1.933-2.686 3.5-6 3.5s-6-1.567-6-3.5S8.686 13 12 13s6 1.567 6 3.5z" fill="#452E47"/><path opacity=".4" d="M22 16.5c0 1.38-1.79 2.5-4 2.5s-4-1.12-4-2.5 1.79-2.5 4-2.5 4 1.12 4 2.5zm-20 0C2 17.88 3.79 19 6 19s4-1.12 4-2.5S8.21 14 6 14s-4 1.12-4 2.5z" fill="#452E47"/></svg>