<svg width="24" height="24" fill="none" xmlns="http://www.w3.org/2000/svg"><path fill-rule="evenodd" clip-rule="evenodd" d="M21.532 11.586l-.782-.626v10.29H22a.75.75 0 010 1.5H2a.75.75 0 010-1.5h1.25V10.96l-.781.626a.75.75 0 01-.937-1.172l8.125-6.5a3.75 3.75 0 014.686 0l8.125 6.5a.75.75 0 11-.936 1.172zM12 6.75a2.75 2.75 0 100 5.5 2.75 2.75 0 000-5.5zm1.746 6.562c-.459-.062-1.032-.062-1.697-.062h-.098c-.665 0-1.238 0-1.697.062-.491.066-.963.215-1.345.597s-.531.853-.597 1.345c-.062.459-.062 1.032-.062 1.697v4.299h7.5v-4.423c0-.613-.004-1.143-.062-1.573-.066-.492-.215-.963-.597-1.345s-.853-.531-1.345-.598z" fill="#452E47"/><g opacity=".5" fill-rule="evenodd" clip-rule="evenodd" fill="#452E47"><path d="M10.75 9.5a1.25 1.25 0 112.5 0 1.25 1.25 0 01-2.5 0z"/><path d="M10.75 9.5a1.25 1.25 0 112.5 0 1.25 1.25 0 01-2.5 0z"/></g><path opacity=".5" d="M12.05 13.25c.664 0 1.237 0 1.696.062.492.066.963.215 1.345.597s.531.853.597 1.345c.058.43.062.96.062 1.573v4.423h-7.5v-4.3c0-.664 0-1.237.062-1.696.066-.492.215-.963.597-1.345s.854-.531 1.345-.597c.459-.062 1.032-.062 1.697-.062h.098zM16 3h2.5a.5.5 0 01.5.5v4.14l-3.5-2.8V3.5A.5.5 0 0116 3z" fill="#452E47"/></svg>